<svg width="1535" height="210" viewBox="0 0 1535 210" fill="none" xmlns="http://www.w3.org/2000/svg">
<path d="M263.009 169V23.5455H323.094C333.984 23.5455 343.383 25.5104 351.29 29.4403C359.244 33.3229 365.376 38.91 369.685 46.2017C373.993 53.446 376.148 62.0398 376.148 71.983C376.148 82.0682 373.946 90.6383 369.543 97.6932C365.139 104.701 358.889 110.051 350.793 113.744C342.696 117.39 333.108 119.213 322.028 119.213H284.031V91.5142H315.494C320.797 91.5142 325.224 90.8276 328.776 89.4545C332.374 88.0341 335.097 85.9034 336.943 83.0625C338.79 80.1742 339.713 76.4811 339.713 71.983C339.713 67.4848 338.79 63.768 336.943 60.8324C335.097 57.8494 332.374 55.6241 328.776 54.1562C325.177 52.6411 320.75 51.8835 315.494 51.8835H298.165V169H263.009ZM344.898 102.523L381.119 169H342.767L307.256 102.523H344.898ZM444.205 171.06C432.747 171.06 422.898 168.716 414.66 164.028C406.469 159.294 400.147 152.712 395.697 144.284C391.293 135.809 389.092 125.984 389.092 114.81C389.092 103.588 391.293 93.7633 395.697 85.3352C400.147 76.8598 406.469 70.2784 414.66 65.5909C422.898 60.8561 432.747 58.4886 444.205 58.4886C455.664 58.4886 465.488 60.8561 473.68 65.5909C481.918 70.2784 488.239 76.8598 492.643 85.3352C497.094 93.7633 499.319 103.588 499.319 114.81C499.319 125.984 497.094 135.809 492.643 144.284C488.239 152.712 481.918 159.294 473.68 164.028C465.488 168.716 455.664 171.06 444.205 171.06ZM444.418 144.852C448.585 144.852 452.112 143.574 455.001 141.017C457.889 138.46 460.091 134.909 461.606 130.364C463.168 125.818 463.95 120.562 463.95 114.597C463.95 108.536 463.168 103.233 461.606 98.6875C460.091 94.142 457.889 90.5909 455.001 88.0341C452.112 85.4773 448.585 84.1989 444.418 84.1989C440.11 84.1989 436.464 85.4773 433.481 88.0341C430.545 90.5909 428.296 94.142 426.734 98.6875C425.219 103.233 424.461 108.536 424.461 114.597C424.461 120.562 425.219 125.818 426.734 130.364C428.296 134.909 430.545 138.46 433.481 141.017C436.464 143.574 440.11 144.852 444.418 144.852ZM534.83 209.909C530.664 209.909 526.734 209.578 523.04 208.915C519.347 208.299 516.175 207.471 513.523 206.429L521.194 181.216C524.603 182.352 527.681 183.015 530.427 183.205C533.22 183.394 535.612 182.944 537.6 181.855C539.636 180.813 541.199 178.943 542.288 176.244L543.637 172.977L504.859 59.9091H541.222L561.322 137.75H562.458L582.842 59.9091H619.418L578.296 179.44C576.308 185.406 573.49 190.662 569.844 195.207C566.246 199.8 561.582 203.399 555.853 206.003C550.171 208.607 543.164 209.909 534.83 209.909ZM754.326 67.1534C753.853 61.9451 751.746 57.8968 748.005 55.0085C744.312 52.0729 739.032 50.6051 732.167 50.6051C727.621 50.6051 723.834 51.197 720.803 52.3807C717.773 53.5644 715.5 55.1979 713.985 57.2812C712.47 59.3172 711.689 61.661 711.641 64.3125C711.547 66.4905 711.973 68.4081 712.92 70.0653C713.914 71.7225 715.335 73.1903 717.181 74.4688C719.075 75.6998 721.348 76.7888 723.999 77.7358C726.651 78.6828 729.634 79.5114 732.948 80.2216L745.448 83.0625C752.645 84.625 758.99 86.7083 764.482 89.3125C770.022 91.9167 774.662 95.018 778.403 98.6165C782.191 102.215 785.055 106.358 786.996 111.045C788.938 115.733 789.932 120.989 789.979 126.812C789.932 135.998 787.612 143.882 783.019 150.463C778.426 157.045 771.821 162.087 763.204 165.591C754.634 169.095 744.288 170.847 732.167 170.847C719.998 170.847 709.392 169.024 700.349 165.378C691.305 161.732 684.274 156.192 679.255 148.759C674.236 141.325 671.656 131.926 671.513 120.562H705.178C705.462 125.25 706.717 129.156 708.942 132.281C711.168 135.406 714.222 137.774 718.104 139.384C722.034 140.993 726.58 141.798 731.741 141.798C736.476 141.798 740.5 141.159 743.815 139.881C747.176 138.602 749.757 136.827 751.556 134.554C753.355 132.281 754.279 129.677 754.326 126.741C754.279 123.995 753.426 121.652 751.769 119.71C750.112 117.722 747.555 116.017 744.099 114.597C740.69 113.129 736.334 111.779 731.031 110.548L715.832 106.997C703.237 104.109 693.317 99.4451 686.073 93.0057C678.829 86.5189 675.23 77.7595 675.278 66.7273C675.23 57.7311 677.645 49.8475 682.522 43.0767C687.399 36.3059 694.146 31.0265 702.763 27.2386C711.381 23.4508 721.206 21.5568 732.238 21.5568C743.507 21.5568 753.284 23.4744 761.57 27.3097C769.904 31.0975 776.367 36.4242 780.96 43.2898C785.552 50.1553 787.896 58.1098 787.991 67.1534H754.326ZM838.488 170.847C831.528 170.847 825.349 169.687 819.951 167.366C814.601 164.999 810.363 161.448 807.238 156.713C804.16 151.931 802.621 145.941 802.621 138.744C802.621 132.684 803.687 127.57 805.817 123.403C807.948 119.237 810.884 115.851 814.624 113.247C818.365 110.643 822.674 108.678 827.55 107.352C832.427 105.979 837.636 105.056 843.175 104.582C849.378 104.014 854.373 103.422 858.161 102.807C861.949 102.144 864.695 101.221 866.4 100.037C868.152 98.8059 869.028 97.0776 869.028 94.8523V94.4972C869.028 90.8513 867.773 88.0341 865.263 86.0455C862.754 84.0568 859.369 83.0625 855.107 83.0625C850.514 83.0625 846.821 84.0568 844.028 86.0455C841.234 88.0341 839.459 90.7803 838.701 94.2841L806.67 93.1477C807.617 86.5189 810.055 80.6004 813.985 75.392C817.962 70.1364 823.407 66.017 830.32 63.0341C837.281 60.0038 845.638 58.4886 855.391 58.4886C862.352 58.4886 868.767 59.3172 874.638 60.9744C880.51 62.5843 885.623 64.9517 889.979 68.0767C894.335 71.1544 897.697 74.9422 900.065 79.4403C902.479 83.9384 903.687 89.0758 903.687 94.8523V169H871.016V153.801H870.164C868.223 157.494 865.737 160.619 862.707 163.176C859.724 165.733 856.196 167.651 852.124 168.929C848.1 170.207 843.554 170.847 838.488 170.847ZM849.212 148.119C852.953 148.119 856.315 147.362 859.298 145.847C862.328 144.331 864.743 142.248 866.542 139.597C868.341 136.898 869.241 133.773 869.241 130.222V119.852C868.246 120.373 867.039 120.847 865.619 121.273C864.246 121.699 862.73 122.101 861.073 122.48C859.416 122.859 857.711 123.19 855.96 123.474C854.208 123.759 852.527 124.019 850.917 124.256C847.65 124.777 844.856 125.581 842.536 126.67C840.263 127.759 838.512 129.18 837.281 130.932C836.097 132.636 835.505 134.672 835.505 137.04C835.505 140.638 836.783 143.384 839.34 145.278C841.944 147.172 845.235 148.119 849.212 148.119ZM995.306 121.912V59.9091H1029.97V169H996.869V148.688H995.732C993.317 155.364 989.198 160.667 983.374 164.597C977.598 168.479 970.614 170.42 962.423 170.42C954.989 170.42 948.455 168.716 942.82 165.307C937.186 161.898 932.806 157.139 929.681 151.031C926.556 144.876 924.97 137.679 924.923 129.44V59.9091H959.653V122.622C959.7 128.541 961.263 133.205 964.34 136.614C967.418 140.023 971.608 141.727 976.911 141.727C980.368 141.727 983.469 140.97 986.215 139.455C989.009 137.892 991.21 135.643 992.82 132.707C994.478 129.724 995.306 126.126 995.306 121.912ZM1102.99 171.06C1091.49 171.06 1081.62 168.692 1073.38 163.957C1065.19 159.223 1058.89 152.641 1054.49 144.213C1050.08 135.738 1047.88 125.937 1047.88 114.81C1047.88 103.635 1050.08 93.8343 1054.49 85.4062C1058.94 76.9309 1065.26 70.3258 1073.45 65.5909C1081.69 60.8561 1091.51 58.4886 1102.92 58.4886C1113.01 58.4886 1121.79 60.3116 1129.27 63.9574C1136.8 67.6032 1142.67 72.7642 1146.89 79.4403C1151.15 86.0691 1153.4 93.858 1153.63 102.807H1121.18C1120.51 97.2197 1118.62 92.84 1115.49 89.6676C1112.42 86.4953 1108.39 84.9091 1103.42 84.9091C1099.4 84.9091 1095.87 86.0455 1092.84 88.3182C1089.81 90.5436 1087.44 93.858 1085.74 98.2614C1084.08 102.617 1083.25 108.015 1083.25 114.455C1083.25 120.894 1084.08 126.339 1085.74 130.79C1087.44 135.193 1089.81 138.531 1092.84 140.804C1095.87 143.029 1099.4 144.142 1103.42 144.142C1106.64 144.142 1109.48 143.455 1111.94 142.082C1114.45 140.709 1116.51 138.697 1118.12 136.045C1119.73 133.347 1120.75 130.08 1121.18 126.244H1153.63C1153.3 135.241 1151.05 143.1 1146.89 149.824C1142.77 156.547 1136.97 161.779 1129.49 165.52C1122.05 169.213 1113.22 171.06 1102.99 171.06ZM1222.4 171.06C1210.99 171.06 1201.14 168.811 1192.86 164.312C1184.62 159.767 1178.27 153.304 1173.82 144.923C1169.42 136.495 1167.22 126.481 1167.22 114.881C1167.22 103.612 1169.44 93.7633 1173.89 85.3352C1178.34 76.8598 1184.62 70.2784 1192.71 65.5909C1200.81 60.8561 1210.35 58.4886 1221.34 58.4886C1229.1 58.4886 1236.2 59.696 1242.64 62.1108C1249.08 64.5256 1254.65 68.1004 1259.33 72.8352C1264.02 77.5701 1267.67 83.4176 1270.27 90.3778C1272.87 97.2907 1274.18 105.222 1274.18 114.17V122.835H1179.36V102.665H1241.86C1241.81 98.9716 1240.94 95.6809 1239.23 92.7926C1237.53 89.9044 1235.19 87.6553 1232.2 86.0455C1229.27 84.3883 1225.88 83.5597 1222.05 83.5597C1218.16 83.5597 1214.68 84.4356 1211.61 86.1875C1208.53 87.892 1206.09 90.2358 1204.29 93.2188C1202.49 96.1544 1201.54 99.4924 1201.45 103.233V123.759C1201.45 128.209 1202.33 132.116 1204.08 135.477C1205.83 138.792 1208.32 141.372 1211.53 143.219C1214.75 145.065 1218.59 145.989 1223.04 145.989C1226.12 145.989 1228.91 145.562 1231.42 144.71C1233.93 143.858 1236.08 142.603 1237.88 140.946C1239.68 139.289 1241.03 137.253 1241.93 134.838L1273.82 135.761C1272.5 142.911 1269.58 149.137 1265.09 154.44C1260.64 159.696 1254.79 163.792 1247.54 166.727C1240.3 169.616 1231.92 171.06 1222.4 171.06ZM1331.76 170.562C1323.71 170.562 1316.39 168.479 1309.81 164.312C1303.23 160.146 1297.98 153.896 1294.05 145.562C1290.12 137.229 1288.15 126.884 1288.15 114.526C1288.15 101.694 1290.19 91.1354 1294.26 82.8494C1298.33 74.5634 1303.66 68.4318 1310.24 64.4545C1316.87 60.4773 1323.99 58.4886 1331.62 58.4886C1337.35 58.4886 1342.25 59.483 1346.32 61.4716C1350.39 63.4129 1353.75 65.9223 1356.4 69C1359.05 72.0777 1361.07 75.2737 1362.44 78.5881H1363.15V23.5455H1397.88V169H1363.51V151.315H1362.44C1360.97 154.677 1358.89 157.826 1356.19 160.761C1353.49 163.697 1350.11 166.064 1346.03 167.864C1342.01 169.663 1337.25 170.562 1331.76 170.562ZM1343.83 143.503C1348.05 143.503 1351.64 142.319 1354.63 139.952C1357.61 137.537 1359.91 134.152 1361.52 129.795C1363.13 125.439 1363.93 120.326 1363.93 114.455C1363.93 108.489 1363.13 103.351 1361.52 99.0426C1359.95 94.7339 1357.66 91.4195 1354.63 89.0994C1351.64 86.7794 1348.05 85.6193 1343.83 85.6193C1339.52 85.6193 1335.88 86.803 1332.89 89.1705C1329.91 91.5379 1327.64 94.8759 1326.08 99.1847C1324.56 103.493 1323.8 108.583 1323.8 114.455C1323.8 120.326 1324.59 125.439 1326.15 129.795C1327.71 134.152 1329.96 137.537 1332.89 139.952C1335.88 142.319 1339.52 143.503 1343.83 143.503ZM1470.77 171.06C1459.31 171.06 1449.46 168.716 1441.22 164.028C1433.03 159.294 1426.71 152.712 1422.26 144.284C1417.86 135.809 1415.65 125.984 1415.65 114.81C1415.65 103.588 1417.86 93.7633 1422.26 85.3352C1426.71 76.8598 1433.03 70.2784 1441.22 65.5909C1449.46 60.8561 1459.31 58.4886 1470.77 58.4886C1482.23 58.4886 1492.05 60.8561 1500.24 65.5909C1508.48 70.2784 1514.8 76.8598 1519.21 85.3352C1523.66 93.7633 1525.88 103.588 1525.88 114.81C1525.88 125.984 1523.66 135.809 1519.21 144.284C1514.8 152.712 1508.48 159.294 1500.24 164.028C1492.05 168.716 1482.23 171.06 1470.77 171.06ZM1470.98 144.852C1475.15 144.852 1478.67 143.574 1481.56 141.017C1484.45 138.46 1486.65 134.909 1488.17 130.364C1489.73 125.818 1490.51 120.562 1490.51 114.597C1490.51 108.536 1489.73 103.233 1488.17 98.6875C1486.65 94.142 1484.45 90.5909 1481.56 88.0341C1478.67 85.4773 1475.15 84.1989 1470.98 84.1989C1466.67 84.1989 1463.03 85.4773 1460.04 88.0341C1457.11 90.5909 1454.86 94.142 1453.3 98.6875C1451.78 103.233 1451.02 108.536 1451.02 114.597C1451.02 120.562 1451.78 125.818 1453.3 130.364C1454.86 134.909 1457.11 138.46 1460.04 141.017C1463.03 143.574 1466.67 144.852 1470.98 144.852Z" fill="white"/>
<path d="M191.796 10.7396C187.77 6.81804 181.33 6.89746 177.408 10.9252C173.487 14.9525 173.567 21.3917 177.594 25.3132C177.627 25.3465 180.96 29.215 180.642 36.6144C180.501 39.8824 179.528 44.6979 176.41 50.9166C179.669 52.7254 182.689 54.8985 185.339 57.4947C187.736 59.8453 189.803 62.5192 191.576 65.4213C197.338 55.8358 200.586 46.4954 200.972 37.4824C201.687 20.875 192.81 11.7267 191.796 10.7396Z" fill="white"/>
<path d="M153.343 58.6919C139.81 58.6919 125.435 65.4487 117.591 76.3787C77.4067 132.428 36.7472 135.303 15.364 135.303C12.919 135.303 10.7265 135.263 8.81876 135.263C1.37959 135.263 -1.80006 135.833 1.01531 141.391C7.6854 154.573 38.1119 170.71 75.486 170.71C105.588 170.71 140.193 160.237 170.5 129.314C185.789 113.72 191.433 82.46 175.846 67.1773C169.857 61.3087 161.762 58.6919 153.343 58.6919Z" fill="white"/>
<path d="M26.0814 108.415C25.3175 98.5163 27.1641 76.061 56.6679 63.4165C56.6679 63.4165 45.7148 89.9077 60.5502 103.311C71.3137 94.9103 78.8849 81.1901 79.6617 67.9208C81.894 29.6451 55.1707 9.50025 37.821 0.52454C36.0462 -0.396493 33.8795 -0.0852948 32.4427 1.30618C30.9985 2.69077 30.6075 4.84322 31.4556 6.65206C38.1589 20.8817 42.6701 46.3387 13.9937 75.969C5.23839 85.0099 12.3724 101.642 26.0814 108.415Z" fill="white"/>
</svg>
