<svg width="1687" height="172" viewBox="0 0 1687 172" fill="none" xmlns="http://www.w3.org/2000/svg">
<path d="M341.631 67.1534H375.295C375.011 39.9517 353.349 21.5568 319.543 21.5568C286.304 21.5568 262.369 39.6676 262.582 66.7273C262.511 88.8153 277.994 101.244 303.136 106.997L318.335 110.548C334.315 114.241 341.489 118.574 341.631 126.741C341.489 135.619 333.179 141.798 319.045 141.798C303.491 141.798 293.264 134.554 292.483 120.562H258.818C259.244 154.582 282.895 170.847 319.472 170.847C355.693 170.847 377.142 154.44 377.284 126.812C377.142 103.588 361.446 89.3835 332.753 83.0625L320.253 80.2216C307.043 77.3807 298.662 72.9773 298.946 64.3125C299.017 56.358 305.835 50.6051 319.472 50.6051C333.179 50.6051 340.707 56.7841 341.631 67.1534ZM425.793 170.847C440.991 170.847 451.503 164.952 457.469 153.801H458.321V169H490.991V94.8523C490.991 71.7699 470.466 58.4886 442.696 58.4886C413.364 58.4886 396.744 73.2614 393.974 93.1477L426.006 94.2841C427.497 87.3239 433.25 83.0625 442.412 83.0625C450.935 83.0625 456.332 87.1818 456.332 94.4972V94.8523C456.332 101.528 449.088 102.949 430.48 104.582C408.392 106.429 389.926 114.597 389.926 138.744C389.926 160.335 404.912 170.847 425.793 170.847ZM436.517 148.119C428.491 148.119 422.81 144.284 422.81 137.04C422.81 130.009 428.349 125.747 438.222 124.256C444.685 123.332 452.639 121.912 456.545 119.852V130.222C456.545 140.875 447.597 148.119 436.517 148.119ZM582.611 121.912C582.611 134.625 574.514 141.727 564.216 141.727C553.562 141.727 547.028 134.483 546.957 122.622V59.9091H512.227V129.44C512.298 154.085 527.284 170.42 549.727 170.42C566.062 170.42 578.207 162.04 583.037 148.688H584.173V169H617.27V59.9091H582.611V121.912ZM690.299 171.06C720.981 171.06 740.015 153.233 740.938 126.244H708.481C707.202 137.821 700.242 144.142 690.725 144.142C678.509 144.142 670.555 133.844 670.555 114.455C670.555 95.2074 678.58 84.9091 690.725 84.9091C700.668 84.9091 707.131 91.6562 708.481 102.807H740.938C740.157 75.9602 720.555 58.4886 690.228 58.4886C655.924 58.4886 635.185 81.358 635.185 114.81C635.185 148.119 655.782 171.06 690.299 171.06ZM809.706 171.06C838.328 171.06 857.149 157.21 861.126 135.761L829.237 134.838C826.538 142.082 819.436 145.989 810.345 145.989C796.993 145.989 788.754 137.111 788.754 123.759V122.835H861.482V114.17C861.482 78.233 839.607 58.4886 808.641 58.4886C775.686 58.4886 754.521 81.0739 754.521 114.881C754.521 149.824 775.402 171.06 809.706 171.06ZM788.754 102.665C789.251 91.7983 797.845 83.5597 809.351 83.5597C820.786 83.5597 829.024 91.5142 829.166 102.665H788.754ZM1000.81 67.1534H1034.48C1034.19 39.9517 1012.53 21.5568 978.722 21.5568C945.484 21.5568 921.549 39.6676 921.762 66.7273C921.691 88.8153 937.174 101.244 962.316 106.997L977.515 110.548C993.495 114.241 1000.67 118.574 1000.81 126.741C1000.67 135.619 992.359 141.798 978.225 141.798C962.671 141.798 952.444 134.554 951.663 120.562H917.998C918.424 154.582 942.075 170.847 978.651 170.847C1014.87 170.847 1036.32 154.44 1036.46 126.812C1036.32 103.588 1020.63 89.3835 991.933 83.0625L979.433 80.2216C966.222 77.3807 957.842 72.9773 958.126 64.3125C958.197 56.358 965.015 50.6051 978.651 50.6051C992.359 50.6051 999.887 56.7841 1000.81 67.1534ZM1115.8 59.9091H1096.12V33.7727H1061.39V59.9091H1046.98V85.4773H1061.39V138.531C1061.18 160.619 1075.53 171.699 1100.03 170.562C1108.41 170.136 1114.45 168.432 1117.78 167.438L1112.53 142.366C1111.04 142.722 1107.56 143.432 1104.93 143.432C1099.32 143.432 1096.12 141.159 1096.12 134.696V85.4773H1115.8V59.9091ZM1203.9 121.912C1203.9 134.625 1195.8 141.727 1185.5 141.727C1174.85 141.727 1168.32 134.483 1168.25 122.622V59.9091H1133.52V129.44C1133.59 154.085 1148.57 170.42 1171.02 170.42C1187.35 170.42 1199.5 162.04 1204.33 148.688H1205.46V169H1238.56V59.9091H1203.9V121.912ZM1300.51 170.562C1316.99 170.562 1326.79 161.401 1331.19 151.315H1332.26V169H1366.63V23.5455H1331.9V78.5881H1331.19C1327.07 68.5739 1317.55 58.4886 1300.37 58.4886C1277.57 58.4886 1256.9 76.0312 1256.9 114.526C1256.9 151.67 1276.43 170.562 1300.51 170.562ZM1312.58 143.503C1299.73 143.503 1292.55 132.068 1292.55 114.455C1292.55 96.9119 1299.66 85.6193 1312.58 85.6193C1325.3 85.6193 1332.68 96.6278 1332.68 114.455C1332.68 132.139 1325.22 143.503 1312.58 143.503ZM1388.59 169H1423.32V59.9091H1388.59V169ZM1406 47.196C1415.87 47.196 1423.82 39.7386 1423.82 30.5767C1423.82 21.4148 1415.87 14.0284 1406 14.0284C1396.19 14.0284 1388.17 21.4148 1388.17 30.5767C1388.17 39.7386 1396.19 47.196 1406 47.196ZM1496.35 171.06C1530.66 171.06 1551.47 148.403 1551.47 114.81C1551.47 81.1449 1530.66 58.4886 1496.35 58.4886C1462.05 58.4886 1441.24 81.1449 1441.24 114.81C1441.24 148.403 1462.05 171.06 1496.35 171.06ZM1496.57 144.852C1483.71 144.852 1476.61 132.636 1476.61 114.597C1476.61 96.4858 1483.71 84.1989 1496.57 84.1989C1509 84.1989 1516.1 96.4858 1516.1 114.597C1516.1 132.636 1509 144.852 1496.57 144.852ZM1664.5 93.2188C1662.65 71.6278 1644.97 58.4886 1615.42 58.4886C1585.88 58.4886 1567.06 71.3438 1567.2 93.2188C1567.06 109.98 1577.78 120.776 1599.59 124.824L1618.62 128.446C1627.64 130.222 1631.76 133.062 1631.9 137.892C1631.76 143.361 1625.65 146.983 1616.77 146.983C1606.9 146.983 1600.22 142.722 1598.73 134.767L1564.43 135.619C1566.91 157.21 1585.45 171.06 1616.63 171.06C1645.82 171.06 1667.06 156.5 1667.2 134.057C1667.06 118.148 1656.55 108.702 1634.81 104.511L1613.79 100.534C1604.56 98.6875 1601.57 95.4205 1601.64 91.2301C1601.57 85.6903 1608.04 82.2812 1616.06 82.2812C1625.22 82.2812 1631.62 87.1818 1632.61 94.071L1664.5 93.2188Z" fill="#161616"/>
<path d="M191.796 10.7396C187.77 6.81804 181.33 6.89746 177.408 10.9252C173.487 14.9525 173.567 21.3917 177.594 25.3132C177.627 25.3465 180.96 29.215 180.642 36.6144C180.501 39.8824 179.528 44.6979 176.41 50.9166C179.669 52.7254 182.689 54.8985 185.339 57.4947C187.736 59.8453 189.803 62.5192 191.576 65.4213C197.338 55.8358 200.586 46.4954 200.972 37.4824C201.687 20.875 192.81 11.7267 191.796 10.7396Z" fill="black"/>
<path d="M153.343 58.6919C139.81 58.6919 125.435 65.4487 117.591 76.3787C77.4067 132.428 36.7472 135.303 15.364 135.303C12.919 135.303 10.7265 135.263 8.81876 135.263C1.37959 135.263 -1.80006 135.833 1.01531 141.391C7.6854 154.573 38.1119 170.71 75.486 170.71C105.588 170.71 140.193 160.237 170.5 129.314C185.789 113.72 191.433 82.46 175.846 67.1773C169.857 61.3087 161.762 58.6919 153.343 58.6919Z" fill="black"/>
<path d="M26.0814 108.415C25.3175 98.5163 27.1641 76.061 56.6679 63.4165C56.6679 63.4165 45.7148 89.9077 60.5502 103.311C71.3137 94.9103 78.8849 81.1901 79.6617 67.9208C81.894 29.6451 55.1707 9.50025 37.821 0.52454C36.0462 -0.396493 33.8795 -0.0852948 32.4427 1.30618C30.9985 2.69077 30.6075 4.84322 31.4556 6.65206C38.1589 20.8817 42.6701 46.3387 13.9937 75.969C5.23839 85.0099 12.3724 101.642 26.0814 108.415Z" fill="black"/>
</svg>
