<svg width="3000" height="2002" viewBox="0 0 3000 2002" fill="none" xmlns="http://www.w3.org/2000/svg">
<rect x="1" y="3" width="2998" height="1998" stroke="#E2E2E2" stroke-width="2"/>
<line x1="51" y1="2" x2="51.0001" y2="2002" stroke="#E2E2E2" stroke-width="2"/>
<line x1="1651" y1="2" x2="1651" y2="2002" stroke="#E2E2E2" stroke-width="2"/>
<line x1="-5.3765e-08" y1="851" x2="3000" y2="851" stroke="#E2E2E2" stroke-width="2"/>
<line x1="851" y1="2" x2="851" y2="2002" stroke="#E2E2E2" stroke-width="2"/>
<line x1="-5.24536e-08" y1="1651" x2="3000" y2="1651" stroke="#E2E2E2" stroke-width="2"/>
<line x1="2451" y1="2" x2="2451" y2="2002" stroke="#E2E2E2" stroke-width="2"/>
<line x1="-5.3765e-08" y1="51" x2="3000" y2="50.9999" stroke="#E2E2E2" stroke-width="2"/>
<line x1="451" y1="2" x2="451" y2="2002" stroke="#E2E2E2" stroke-width="2"/>
<line x1="2051" y1="2" x2="2051" y2="2002" stroke="#E2E2E2" stroke-width="2"/>
<line x1="-5.3765e-08" y1="451" x2="3000" y2="451" stroke="#E2E2E2" stroke-width="2"/>
<line x1="1251" y1="2" x2="1251" y2="2002" stroke="#E2E2E2" stroke-width="2"/>
<line x1="-5.24536e-08" y1="1251" x2="3000" y2="1251" stroke="#E2E2E2" stroke-width="2"/>
<line x1="2851" y1="2" x2="2851" y2="2002" stroke="#E2E2E2" stroke-width="2"/>
<line x1="251" y1="2" x2="251" y2="2002" stroke="#E2E2E2" stroke-width="2"/>
<line x1="1851" y1="2" x2="1851" y2="2002" stroke="#E2E2E2" stroke-width="2"/>
<line x1="-5.3765e-08" y1="651" x2="3000" y2="651" stroke="#E2E2E2" stroke-width="2"/>
<line x1="1051" y1="2" x2="1051" y2="2002" stroke="#E2E2E2" stroke-width="2"/>
<line x1="-5.24536e-08" y1="1451" x2="3000" y2="1451" stroke="#E2E2E2" stroke-width="2"/>
<line x1="2651" y1="2" x2="2651" y2="2002" stroke="#E2E2E2" stroke-width="2"/>
<line x1="651" y1="2" x2="651" y2="2002" stroke="#E2E2E2" stroke-width="2"/>
<line x1="-5.24536e-08" y1="1851" x2="3000" y2="1851" stroke="#E2E2E2" stroke-width="2"/>
<line x1="2251" y1="2" x2="2251" y2="2002" stroke="#E2E2E2" stroke-width="2"/>
<line x1="-5.3765e-08" y1="251" x2="3000" y2="251" stroke="#E2E2E2" stroke-width="2"/>
<line x1="1451" y1="2" x2="1451" y2="2002" stroke="#E2E2E2" stroke-width="2"/>
<line x1="-5.24536e-08" y1="1051" x2="3000" y2="1051" stroke="#E2E2E2" stroke-width="2"/>
<line x1="151" y1="2" x2="151" y2="2002" stroke="#E2E2E2" stroke-width="2"/>
<line x1="1751" y1="2" x2="1751" y2="2002" stroke="#E2E2E2" stroke-width="2"/>
<line x1="-5.3765e-08" y1="751" x2="3000" y2="751" stroke="#E2E2E2" stroke-width="2"/>
<line x1="951" y1="2" x2="951" y2="2002" stroke="#E2E2E2" stroke-width="2"/>
<line x1="-5.24536e-08" y1="1551" x2="3000" y2="1551" stroke="#E2E2E2" stroke-width="2"/>
<line x1="2551" y1="2" x2="2551" y2="2002" stroke="#E2E2E2" stroke-width="2"/>
<line x1="551" y1="2" x2="551" y2="2002" stroke="#E2E2E2" stroke-width="2"/>
<line x1="-5.24536e-08" y1="1951" x2="3000" y2="1951" stroke="#E2E2E2" stroke-width="2"/>
<line x1="2151" y1="2" x2="2151" y2="2002" stroke="#E2E2E2" stroke-width="2"/>
<line x1="-5.3765e-08" y1="351" x2="3000" y2="351" stroke="#E2E2E2" stroke-width="2"/>
<line x1="1351" y1="2" x2="1351" y2="2002" stroke="#E2E2E2" stroke-width="2"/>
<line x1="-5.24536e-08" y1="1151" x2="3000" y2="1151" stroke="#E2E2E2" stroke-width="2"/>
<line x1="2951" y1="2" x2="2951" y2="2002" stroke="#E2E2E2" stroke-width="2"/>
<line x1="351" y1="2" x2="351" y2="2002" stroke="#E2E2E2" stroke-width="2"/>
<line x1="1951" y1="2" x2="1951" y2="2002" stroke="#E2E2E2" stroke-width="2"/>
<line x1="-5.3765e-08" y1="551" x2="3000" y2="551" stroke="#E2E2E2" stroke-width="2"/>
<line x1="1151" y1="2" x2="1151" y2="2002" stroke="#E2E2E2" stroke-width="2"/>
<line x1="-5.24536e-08" y1="1351" x2="3000" y2="1351" stroke="#E2E2E2" stroke-width="2"/>
<line x1="2751" y1="2" x2="2751" y2="2002" stroke="#E2E2E2" stroke-width="2"/>
<line x1="751" y1="2" x2="751" y2="2002" stroke="#E2E2E2" stroke-width="2"/>
<line x1="-5.24536e-08" y1="1751" x2="3000" y2="1751" stroke="#E2E2E2" stroke-width="2"/>
<line x1="2351" y1="2" x2="2351" y2="2002" stroke="#E2E2E2" stroke-width="2"/>
<line x1="-5.3765e-08" y1="151" x2="3000" y2="151" stroke="#E2E2E2" stroke-width="2"/>
<line x1="1551" y1="2" x2="1551" y2="2002" stroke="#E2E2E2" stroke-width="2"/>
<line x1="-5.3765e-08" y1="951" x2="3000" y2="951" stroke="#E2E2E2" stroke-width="2"/>
<line x1="101" y1="2" x2="101" y2="2002" stroke="#E2E2E2" stroke-width="2"/>
<line x1="1701" y1="2" x2="1701" y2="2002" stroke="#E2E2E2" stroke-width="2"/>
<line x1="-5.3765e-08" y1="801" x2="3000" y2="801" stroke="#E2E2E2" stroke-width="2"/>
<line x1="901" y1="2" x2="901" y2="2002" stroke="#E2E2E2" stroke-width="2"/>
<line x1="-5.24536e-08" y1="1601" x2="3000" y2="1601" stroke="#E2E2E2" stroke-width="2"/>
<line x1="2501" y1="2" x2="2501" y2="2002" stroke="#E2E2E2" stroke-width="2"/>
<line x1="-5.3765e-08" y1="1" x2="3000" y2="0.999893" stroke="#E2E2E2" stroke-width="2"/>
<line x1="501" y1="2" x2="501" y2="2002" stroke="#E2E2E2" stroke-width="2"/>
<line x1="-5.24536e-08" y1="2001" x2="3000" y2="2001" stroke="#E2E2E2" stroke-width="2"/>
<line x1="2101" y1="2" x2="2101" y2="2002" stroke="#E2E2E2" stroke-width="2"/>
<line x1="-5.3765e-08" y1="401" x2="3000" y2="401" stroke="#E2E2E2" stroke-width="2"/>
<line x1="1301" y1="2" x2="1301" y2="2002" stroke="#E2E2E2" stroke-width="2"/>
<line x1="-5.24536e-08" y1="1201" x2="3000" y2="1201" stroke="#E2E2E2" stroke-width="2"/>
<line x1="2901" y1="2" x2="2901" y2="2002" stroke="#E2E2E2" stroke-width="2"/>
<line x1="301" y1="2" x2="301" y2="2002" stroke="#E2E2E2" stroke-width="2"/>
<line x1="1901" y1="2" x2="1901" y2="2002" stroke="#E2E2E2" stroke-width="2"/>
<line x1="-5.3765e-08" y1="601" x2="3000" y2="601" stroke="#E2E2E2" stroke-width="2"/>
<line x1="1101" y1="2" x2="1101" y2="2002" stroke="#E2E2E2" stroke-width="2"/>
<line x1="-5.24536e-08" y1="1401" x2="3000" y2="1401" stroke="#E2E2E2" stroke-width="2"/>
<line x1="2701" y1="2" x2="2701" y2="2002" stroke="#E2E2E2" stroke-width="2"/>
<line x1="701" y1="2" x2="701" y2="2002" stroke="#E2E2E2" stroke-width="2"/>
<line x1="-5.24536e-08" y1="1801" x2="3000" y2="1801" stroke="#E2E2E2" stroke-width="2"/>
<line x1="2301" y1="2" x2="2301" y2="2002" stroke="#E2E2E2" stroke-width="2"/>
<line x1="-5.3765e-08" y1="201" x2="3000" y2="201" stroke="#E2E2E2" stroke-width="2"/>
<line x1="1501" y1="2" x2="1501" y2="2002" stroke="#E2E2E2" stroke-width="2"/>
<line x1="-5.3765e-08" y1="1001" x2="3000" y2="1001" stroke="#E2E2E2" stroke-width="2"/>
<line x1="201" y1="2" x2="201" y2="2002" stroke="#E2E2E2" stroke-width="2"/>
<line x1="1801" y1="2" x2="1801" y2="2002" stroke="#E2E2E2" stroke-width="2"/>
<line x1="-5.3765e-08" y1="701" x2="3000" y2="701" stroke="#E2E2E2" stroke-width="2"/>
<line x1="1001" y1="2" x2="1001" y2="2002" stroke="#E2E2E2" stroke-width="2"/>
<line x1="-5.24536e-08" y1="1501" x2="3000" y2="1501" stroke="#E2E2E2" stroke-width="2"/>
<line x1="2601" y1="2" x2="2601" y2="2002" stroke="#E2E2E2" stroke-width="2"/>
<line x1="601" y1="2" x2="601" y2="2002" stroke="#E2E2E2" stroke-width="2"/>
<line x1="-5.24536e-08" y1="1901" x2="3000" y2="1901" stroke="#E2E2E2" stroke-width="2"/>
<line x1="2201" y1="2" x2="2201" y2="2002" stroke="#E2E2E2" stroke-width="2"/>
<line x1="-5.3765e-08" y1="301" x2="3000" y2="301" stroke="#E2E2E2" stroke-width="2"/>
<line x1="1401" y1="2" x2="1401" y2="2002" stroke="#E2E2E2" stroke-width="2"/>
<line x1="-5.24536e-08" y1="1101" x2="3000" y2="1101" stroke="#E2E2E2" stroke-width="2"/>
<line x1="401" y1="2" x2="401" y2="2002" stroke="#E2E2E2" stroke-width="2"/>
<line x1="2001" y1="2" x2="2001" y2="2002" stroke="#E2E2E2" stroke-width="2"/>
<line x1="-5.3765e-08" y1="501" x2="3000" y2="501" stroke="#E2E2E2" stroke-width="2"/>
<line x1="1201" y1="2" x2="1201" y2="2002" stroke="#E2E2E2" stroke-width="2"/>
<line x1="-5.24536e-08" y1="1301" x2="3000" y2="1301" stroke="#E2E2E2" stroke-width="2"/>
<line x1="2801" y1="2" x2="2801" y2="2002" stroke="#E2E2E2" stroke-width="2"/>
<line x1="801" y1="2" x2="801" y2="2002" stroke="#E2E2E2" stroke-width="2"/>
<line x1="-5.24536e-08" y1="1701" x2="3000" y2="1701" stroke="#E2E2E2" stroke-width="2"/>
<line x1="2401" y1="2" x2="2401" y2="2002" stroke="#E2E2E2" stroke-width="2"/>
<line x1="-5.3765e-08" y1="101" x2="3000" y2="101" stroke="#E2E2E2" stroke-width="2"/>
<line x1="1601" y1="2" x2="1601" y2="2002" stroke="#E2E2E2" stroke-width="2"/>
<line x1="-5.3765e-08" y1="901" x2="3000" y2="901" stroke="#E2E2E2" stroke-width="2"/>
</svg>
