<svg width="50" height="50" viewBox="0 0 50 50" fill="none" xmlns="http://www.w3.org/2000/svg">
<path d="M15.9999 50C15.8515 50 15.7031 49.9687 15.5664 49.8984C15.1132 49.6797 14.8945 49.1602 15.0507 48.6836L22.6132 26H14.9999C14.664 26 14.3554 25.832 14.1679 25.5547C13.9804 25.2773 13.9492 24.9258 14.0781 24.6172L24.0781 0.617188C24.2304 0.242188 24.5976 0 24.9999 0H34.4999C34.8398 0 35.1562 0.171875 35.3398 0.457031C35.5234 0.742188 35.5507 1.09766 35.414 1.40625L27.5429 19H34.9999C35.3671 19 35.7031 19.2031 35.8789 19.5234C36.0546 19.8477 36.039 20.2383 35.8359 20.5469L16.8359 49.5469C16.6445 49.8398 16.3281 50 15.9999 50Z" fill="white"/>
</svg>
