<?xml version="1.0"?><svg fill="#000000" xmlns="http://www.w3.org/2000/svg"  viewBox="0 0 30 30" width="30px" height="30px">    <path d="M20.455,4C17,4,15,7,15,7s-2-3-5.455-3C5.93,4,3,6.93,3,10.545c0,2.62,1.275,5.189,3,7.493V12h1c0.553,0,1,0.447,1,1v3.586 l6.293-6.293c0.391-0.391,1.023-0.391,1.414,0c0.391,0.391,0.391,1.023,0,1.414l-3.879,3.879l0.586,0.586l4.879-4.879 c0.391-0.391,1.023-0.391,1.414,0C18.902,11.488,19,11.744,19,12s-0.098,0.512-0.293,0.707l-4.879,4.879l0.586,0.586l3.879-3.879 c0.391-0.391,1.023-0.391,1.414,0C19.902,14.488,20,14.744,20,15s-0.098,0.512-0.293,0.707l-3.879,3.879l0.586,0.586l1.879-1.879 c0.391-0.391,1.023-0.391,1.414,0C19.902,18.488,20,18.744,20,19s-0.098,0.512-0.293,0.707L13.814,25.6 C14.147,25.847,14.554,26,15,26c0.452,0,0.865-0.156,1.2-0.409l0.004,0.006C19.579,22.951,27,16.886,27,10.545 C27,6.93,24.07,4,20.455,4z"/></svg>