<?xml version="1.0" encoding="UTF-8"?>
<svg xmlns="http://www.w3.org/2000/svg" xmlns:xlink="http://www.w3.org/1999/xlink" viewBox="0 0 60 60" width="60px" height="60px">
<g id="surface11879606">
<path style=" stroke:none;fill-rule:nonzero;fill:rgb(100%,100%,100%);fill-opacity:1;" d="M 53.957031 6.042969 C 53.957031 6.042969 36 6 22 20 C 21.355469 20.644531 20.789062 21.351562 20.28125 22.078125 C 17.800781 21.878906 14 21.945312 12.054688 23.890625 C 7.515625 28.429688 6 36 6 36 L 16 34.570312 L 16 38 L 22 44 L 25.429688 44 L 24 54 C 24 54 31.570312 52.484375 36.109375 47.945312 C 38.054688 46 38.121094 42.199219 37.921875 39.71875 C 38.648438 39.210938 39.355469 38.644531 40 38 C 54 24 53.957031 6.042969 53.957031 6.042969 Z M 38 18 C 40.210938 18 42 19.789062 42 22 C 42 24.210938 40.210938 26 38 26 C 35.789062 26 34 24.210938 34 22 C 34 19.789062 35.789062 18 38 18 Z M 14.398438 39.992188 C 13.636719 40.191406 12.917969 40.574219 12.324219 41.167969 C 9.59375 43.898438 10.027344 49.96875 10.027344 49.96875 C 10.027344 49.96875 16.054688 50.441406 18.824219 47.671875 C 19.417969 47.078125 19.800781 46.355469 20 45.59375 L 19.085938 44.679688 C 18.996094 44.808594 18.941406 44.957031 18.824219 45.070312 C 16.875 47.019531 13.949219 46.046875 13.949219 46.046875 C 13.949219 46.046875 12.972656 43.121094 14.925781 41.171875 C 15.042969 41.054688 15.183594 41.003906 15.3125 40.910156 Z M 14.398438 39.992188 "/>
</g>
</svg>
