<svg fill="#000000" xmlns="http://www.w3.org/2000/svg"  viewBox="0 0 60 56.017" width="60px" height="60px"><path d="M 55.882812 -0.01171875 C 55.575187 -0.03071875 55.253922 -0.001953125 54.982422 -0.001953125 L 52.970703 -0.001953125 L 50.986328 -0.001953125 L 50.029297 -0.001953125 C 49.477297 -0.001953125 49.029297 0.44604687 49.029297 0.99804688 C 49.029297 1.5500469 49.477297 1.9980469 50.029297 1.9980469 L 53.894531 1.9980469 L 35.90625 23.585938 L 23.675781 13.236328 C 23.286781 12.907328 22.71375 12.923437 22.34375 13.273438 L 3.34375 31.273438 C 2.94275 31.653437 2.9246875 32.2865 3.3046875 32.6875 C 3.4996875 32.8965 3.7642969 33 4.0292969 33 C 4.2762969 33 4.52475 32.909562 4.71875 32.726562 L 23.068359 15.341797 L 35.384766 25.763672 C 35.588766 25.935672 35.851188 26.019094 36.117188 25.996094 C 36.383187 25.973094 36.627828 25.845625 36.798828 25.640625 L 55.029297 3.7617188 L 55.029297 7 C 55.029297 7.552 55.477297 8 56.029297 8 C 56.581297 8 57.029297 7.552 57.029297 7 L 57.029297 6.1816406 L 57.029297 4.3261719 L 57.029297 2.3300781 C 57.029297 1.9170781 57.040297 1.5028438 57.029297 1.0898438 C 57.021297 0.77984375 56.932266 0.48748438 56.697266 0.27148438 C 56.484266 0.075484375 56.190438 0.00728125 55.882812 -0.01171875 z M 47.029297 18 C 46.477297 18 46.029297 18.448 46.029297 19 L 46.029297 54 L 42.029297 54 L 42.029297 39 C 42.029297 38.448 41.581297 38 41.029297 38 L 33.029297 38 C 32.477297 38 32.029297 38.448 32.029297 39 L 32.029297 54 L 28.029297 54 L 28.029297 26 C 28.029297 25.448 27.581297 25 27.029297 25 L 19.029297 25 C 18.477297 25 18.029297 25.448 18.029297 26 L 18.029297 54 L 14.029297 54 L 14.029297 45 C 14.029297 44.448 13.581297 44 13.029297 44 L 5.0292969 44 C 4.4772969 44 4.0292969 44.448 4.0292969 45 L 4.0292969 54 L 1.0292969 54 C 0.47729687 54 0.029296875 54.448 0.029296875 55 C 0.029296875 55.552 0.47729687 56 1.0292969 56 L 5.0292969 56 L 13.029297 56 L 19.029297 56 L 27.029297 56 L 33.029297 56 L 41.029297 56 L 47.029297 56 L 55.029297 56 L 59.029297 56 C 59.581297 56 60.029297 55.552 60.029297 55 C 60.029297 54.448 59.581297 54 59.029297 54 L 56.029297 54 L 56.029297 19 C 56.029297 18.448 55.581297 18 55.029297 18 L 47.029297 18 z"/></svg>