<svg fill="#ffffff" xmlns="http://www.w3.org/2000/svg"  viewBox="0 0 512 512" width="64px" height="64px"><path d="M53 415.645a30.034 30.034 0 0030 30H429a30.034 30.034 0 0030-30V167.513H53zM302.667 263.537a10 10 0 1114.008-14.276l44.137 43.31a10 10 0 010 14.276l-44.137 43.309a10 10 0 11-14.008-14.276l36.862-36.171zm-80.9 109.5l38.257-150.5a10 10 0 1119.383 4.927l-38.257 150.5a10 10 0 01-19.383-4.927zm-77.074-80.465l44.137-43.31a10 10 0 1114.008 14.276l-36.862 36.172 36.862 36.171a10 10 0 01-14.008 14.276l-44.137-43.309a10 10 0 010-14.276zM429 66.355H83a30.034 30.034 0 00-30 30v51.157H459V96.355A30.034 30.034 0 00429 66.355z"/></svg>