<?xml version="1.0"?><svg fill="#000000" xmlns="http://www.w3.org/2000/svg"  viewBox="0 0 30 30" width="30px" height="30px">    <path d="M 2 5 L 2.015625 17 L 3.6054688 17 L 12.394531 26.189453 A 2 2 0 0 0 14 27 A 2 2 0 0 0 16 25 A 2 2 0 0 0 15.976562 24.716797 A 2 2 0 0 0 17 25 A 2 2 0 0 0 19 23 A 2 2 0 0 0 18.976562 22.716797 A 2 2 0 0 0 20 23 A 2 2 0 0 0 22 21 A 2 2 0 0 0 21.976562 20.716797 A 2 2 0 0 0 23 21 A 2 2 0 0 0 25 19 A 2 2 0 0 0 24.423828 17.595703 L 24.398438 17.572266 A 2 2 0 0 0 24.265625 17.453125 L 18.357422 12.123047 C 18.357422 12.123047 14.695922 12.703781 13.294922 12.925781 C 11.893922 13.147781 8 12.682 8 8 C 8 6.542 9.0748125 6.21875 9.7578125 5.96875 C 10.439812 5.71775 12.5 5 12.5 5 L 2 5 z M 19 5 A 2 2 0 0 0 18.480469 5.0683594 A 2 2 0 0 0 18.478516 5.0683594 L 18.470703 5.0703125 A 2 2 0 0 0 18.464844 5.0722656 A 2 2 0 0 0 18.255859 5.1445312 L 10 8 L 10 8.5 C 10 9.881 11.119 11 12.5 11 C 12.583663 11 12.662591 10.982633 12.744141 10.974609 L 12.753906 10.986328 L 12.960938 10.953125 C 12.980441 10.949481 13.000191 10.947453 13.019531 10.943359 L 19 9.9960938 C 19 9.9960938 24.250969 14.694328 25.167969 15.611328 C 26.047969 16.491328 26.917328 17.155 26.986328 19 L 29 19 L 29 7 L 25 8 L 20.009766 5.2753906 A 2 2 0 0 0 19.902344 5.2167969 L 19.855469 5.1914062 L 19.847656 5.1914062 A 2 2 0 0 0 19 5 z"/></svg>