<svg width="247" height="324" viewBox="0 0 247 324" fill="none" xmlns="http://www.w3.org/2000/svg">
<path fill-rule="evenodd" clip-rule="evenodd" d="M241.496 179.325C238.479 179.621 235.463 179.917 232.446 180.213C217.998 181.317 203.555 183.624 189.218 185.008C188.861 184.427 188.162 184.522 187.738 184.926C186.307 184.801 184.704 183.707 183.408 184.845C183.365 184.839 183.323 184.832 183.281 184.828C180.973 180.397 179.378 175.672 177.83 170.94C176.842 168.031 175.513 165.214 173.056 163.261C168.864 160.35 159.258 154.446 154.335 154.694C154.254 153.813 153.843 152.904 153.168 152.317C154.655 149.781 148.71 148.126 148.29 148.42C148.559 139.947 144.575 132.589 135.791 130.902C127.921 129.262 116.727 128.986 112.495 137.214C112.03 137.161 107.274 137.137 106.814 137.188C106.098 136.282 98.2411 144.871 101.461 147.862C72.6714 160.602 56.3013 159.082 48.3327 194.899C47.2555 198.264 47.177 201.946 46.0394 205.236C41.9923 214.69 38.7097 224.756 37.8928 235.043C35.9196 235.549 35.6927 239.029 37.9782 239.533C38.8512 239.725 39.5812 239.988 40.2178 240.487C39.7202 248.917 41.7582 268.174 43.0423 268.114C45.6607 276.451 57.3399 278.803 65.6084 275.874C64.183 278.557 65.6084 280.243 65.6084 281.677C95.3606 282.803 127.891 282.154 157.635 283.698C161.44 283.644 165.442 284.633 169.195 284.064C171.483 283.515 171.487 279.915 169.166 279.47L179.309 277.266C179.083 277.181 183.491 274.248 186.822 268.767C189.923 262.635 187.813 255.234 189.218 248.565C200.192 247.667 211.347 247.283 222.201 245.424C223.681 249.854 230.088 244.556 232.124 242.425C232.122 242.422 232.119 242.418 232.117 242.415C233.102 242.145 233.892 241.221 233.919 240.127C234.61 239.139 234.755 237.747 234.092 236.792C237.13 219.257 241.761 201.353 243.435 183.653C244.026 183.522 244.584 183.263 245.056 182.863L245.018 182.824C245.818 181.932 245.974 180.391 244.64 179.632C243.563 179.02 242.664 179.21 241.496 179.325Z" fill="white"/>
<path fill-rule="evenodd" clip-rule="evenodd" d="M113.043 135.303C113.94 133.049 116.97 133.925 116.632 136.293C116.43 137.711 115.653 139.209 114.956 140.452C114.388 141.463 113.74 142.451 112.862 143.209C114.426 144.668 116.048 146.074 117.712 147.409C119.528 148.866 121.437 150.208 123.411 151.442C125.141 152.524 126.95 153.483 128.581 154.717C130.098 155.865 131.479 157.246 132.182 159.048C132.931 160.967 132.606 162.949 132.054 164.867L131.991 165.084C131.428 166.984 130.452 169.274 131.805 171.064C132.493 171.976 133.494 172.621 134.359 173.35C135.127 173.997 135.848 174.701 136.509 175.458C137.951 177.107 139.124 178.962 139.864 181.03L139.93 181.218C140.564 183.048 141.028 185.29 140.171 187.087C139.925 187.602 139.132 187.434 138.994 186.933C138.683 185.797 138.699 184.607 138.438 183.454C138.166 182.256 137.714 181.119 137.123 180.042C135.981 177.96 134.434 176.182 132.606 174.678L132.058 174.233C130.632 173.062 129.322 171.82 129.032 169.883C128.723 167.81 129.553 165.835 130.087 163.873C130.459 162.505 130.58 161.194 130.178 159.959C129.687 160.761 129.017 161.522 128.487 162.201C127.431 163.554 126.366 164.898 125.303 166.246C124.213 167.627 123.15 169.03 122.138 170.47C121.685 171.114 121.237 171.761 120.791 172.41C120.455 172.897 119.987 173.384 119.621 173.881C119.71 174.147 119.703 174.454 119.542 174.671C117.602 177.294 114.841 171.821 114.121 170.439C112.655 167.623 111.564 164.632 110.093 161.816C108.568 158.898 106.832 156.057 104.898 153.393C103.728 151.782 102.416 150.268 101.346 148.605C98.8237 150.893 95.5051 152.426 92.4569 153.817C89.1079 155.345 85.6285 156.593 82.1947 157.918L81.1804 158.312C75.2639 160.622 69.2028 163.16 64.2851 167.263C58.5062 172.085 55.0875 178.805 52.5424 185.764C49.6125 193.775 47.1886 202.002 44.9291 210.224C43.7729 214.431 42.6758 218.657 41.6443 222.897C40.7355 226.632 39.9821 230.404 38.93 234.1C41.0638 234.025 43.4974 234.851 45.3191 235.09C53.6217 236.177 61.8126 237.91 69.6512 240.911C70.6195 241.281 70.8996 242.249 70.6888 243.033C71.2472 242.875 71.8051 242.716 72.3635 242.559C71.7517 241.621 72.0437 239.944 72.0918 238.905L72.0948 238.834C72.1442 237.449 72.2944 236.062 72.3918 234.68C72.5773 232.044 72.8187 229.428 73.1397 226.808L73.2217 226.153C73.5855 223.302 73.8544 220.435 74.2514 217.589L74.2983 217.263C74.1079 216.535 73.8863 215.816 73.6537 215.1C73.0339 213.193 72.159 211.397 71.3923 209.55C71.3019 209.332 71.6116 209.207 71.7563 209.338C73.0548 210.506 74.0862 211.989 74.9148 213.539C74.9291 213.466 74.9418 213.393 74.9568 213.32L75.0514 212.854C75.2845 211.719 75.5681 210.524 76.2643 209.603C76.3385 209.505 76.4851 209.485 76.5553 209.603C77.2216 210.731 77.2962 212.16 77.3986 213.443C77.5146 214.895 77.5292 216.366 77.5087 217.822C77.4688 220.667 77.2683 223.52 77.1086 226.361C76.9519 229.153 76.6442 231.909 76.2476 234.673L76.1722 235.191C75.9784 236.507 75.8197 237.839 75.564 239.146L75.4917 239.501C75.3551 240.149 75.271 241.063 74.9989 241.822C81.9998 239.869 89.0116 237.96 96.0367 236.084C101.114 234.729 106.197 233.393 111.277 232.05C111.545 231.566 111.879 231.115 112.296 230.711C113.668 229.382 115.487 228.788 117.156 229.812C117.291 229.895 117.303 230.108 117.156 230.189C116.836 230.363 116.516 230.543 116.201 230.729L119.252 229.903C121.532 229.285 123.84 228.512 126.174 228.081C130.472 225.959 135.096 224.423 139.624 222.905L140.158 222.724C142.476 221.933 144.874 221.048 147.27 220.61C149.024 220.289 151.082 220.676 151.787 222.473C152.68 223.062 153.52 223.754 154.331 224.434C154.917 224.926 155.479 225.448 156.05 225.957L156.155 226.05C156.622 226.455 156.992 226.727 157.107 227.372C157.166 227.705 156.954 228.156 156.543 228.112C155.286 227.977 154.264 226.519 153.411 225.649C152.753 224.976 152.088 224.28 151.487 223.54C151.137 223.731 150.656 223.697 150.433 223.274C149.276 221.083 146.107 222.601 144.354 223.121L141.842 223.865C140.586 224.237 139.33 224.611 138.077 224.992C134.633 226.039 131.205 227.21 127.729 228.171C128.04 228.513 127.997 229.121 127.407 229.352C124.686 230.42 121.701 230.973 118.874 231.705C117.09 232.168 115.306 232.634 113.524 233.103C113.218 233.598 112.998 234.159 112.905 234.811C112.565 237.21 113.221 239.978 113.86 242.298L113.957 242.644C114.482 244.51 115.255 246.797 116.864 247.975C117.257 248.262 117.757 248.462 118.261 248.507C121.41 246.885 124.559 245.264 127.711 243.645C128.294 243.345 128.834 243.751 128.965 244.234C130.076 244.052 131.184 243.764 132.194 243.421C133.89 242.845 135.215 241.746 136.805 240.986C139.883 239.515 143.025 241.321 145.781 242.695L146.416 243.007C147.651 243.607 150.222 244.759 150.815 243.119C151.388 241.532 149.575 239.836 148.404 239.122C147.009 238.27 145.384 237.815 143.806 237.435C142.906 237.218 141.994 237.041 141.077 236.912C140.037 236.766 138.962 236.788 137.96 236.45C137.463 236.283 137.386 235.492 137.96 235.361C139.502 235.01 141.343 235.393 142.951 235.784L143.792 235.992C145.413 236.39 147.05 236.889 148.527 237.683C149.6 238.26 150.734 239.137 151.474 240.211C152.117 239.614 152.917 239.634 153.75 239.855L154.203 239.981C154.95 240.188 155.555 240.331 156.282 240.187C156.379 239.658 156.478 239.129 156.583 238.6C157.619 233.398 158.755 228.215 160.008 223.061C162.171 214.17 164.672 205.376 167.493 196.673L167.776 195.803C168.426 193.812 168.95 191.643 169.999 189.815C170.991 188.085 172.58 187.089 174.468 186.562C176.611 185.963 178.862 185.65 181.048 185.246C181.535 185.156 182.024 185.07 182.512 184.981C182.1 184.236 181.792 183.391 181.515 182.742L181.466 182.629C180.87 181.271 180.335 179.888 179.819 178.497L179.432 177.452C178.499 174.934 177.536 172.458 176.224 170.104C174.843 167.626 173.011 165.6 170.728 163.923C166.072 160.505 160.46 158.761 155.944 155.107C155.759 154.958 155.996 154.702 156.184 154.796C159.233 156.329 162.525 157.371 165.696 158.619L166.322 158.866C168.829 159.86 171.375 160.942 173.544 162.552C175.963 164.347 177.869 166.576 179.301 169.226C180.712 171.839 181.615 174.763 182.61 177.554L182.877 178.297C183.278 179.412 183.693 180.524 184.168 181.609C184.546 182.471 185.25 183.454 185.57 184.438C186.446 184.286 187.321 184.134 188.198 183.987C207.184 180.816 226.382 178.953 245.623 178.408C246.375 178.387 246.765 179.105 246.654 179.762C244.807 190.685 243.166 201.645 241.366 212.576C240.58 217.347 239.778 222.114 238.958 226.879C238.543 229.293 238.062 231.698 237.669 234.115C237.351 236.068 237.12 238.036 236.575 239.943C236.085 241.653 235.334 243.302 234.101 244.606C232.772 246.013 230.917 246.694 229.049 247.015C224.308 247.831 219.445 248.165 214.666 248.709L189.219 251.605C189.591 254.986 189.619 258.315 189.448 261.735L189.351 263.603C189.271 265.105 189.176 266.609 188.961 268.096C188.69 269.96 187.838 271.539 186.582 272.932C185.428 274.211 184.027 275.303 182.664 276.348C181.25 277.434 179.788 278.482 178.124 279.154L177.909 279.239C176.449 279.809 173.712 280.692 171.718 280.369C171.978 281.676 172.483 283.081 172.036 284.374C171.828 284.975 171.043 285.274 170.562 284.763C169.61 283.751 169.535 282.413 169.31 281.092C169.075 279.718 168.873 278.338 168.693 276.956C168.345 274.282 168.074 271.583 167.992 268.887C167.907 266.118 167.94 263.345 168.089 260.579C168.166 259.158 168.261 257.739 168.441 256.327C168.518 255.725 168.596 255.123 168.686 254.523C168.719 254.304 168.755 254.086 168.794 253.868L166.51 254.126C163.008 254.517 159.504 254.87 155.978 254.925C155.56 254.932 155.239 254.741 155.029 254.464C154.805 254.829 154.415 255.09 153.857 255.088C148.932 255.069 144.345 253.458 139.866 251.559C137.608 250.602 135.385 249.565 133.123 248.616C131.012 247.73 128.756 247.098 126.696 246.1L121.283 248.94C121.244 249.08 121.193 249.212 121.139 249.323C120.786 250.042 120.091 250.433 119.382 250.727C118.701 251.009 117.995 251.097 117.308 251.026C113.203 253.178 109.097 255.328 104.988 257.473L100.879 259.616C92.6908 263.881 84.5353 268.215 76.2958 272.38L75.6892 272.685C72.8433 274.113 69.7873 275.56 66.6291 276.64C66.5729 277.44 66.6084 278.217 66.6753 279.064L66.6915 279.248C66.7856 280.249 66.9875 281.502 66.1854 282.214C65.7681 282.584 65.0228 282.586 64.7391 282.028C64.2242 281.015 64.6865 279.419 64.8496 278.319C64.9074 277.927 64.978 277.525 65.0824 277.135C61.4617 278.213 57.7313 278.736 54.0468 278.131C50.4595 277.542 47.6811 275.281 45.4412 272.515C43.0774 269.597 41.3976 266.197 40.4963 262.551C39.4706 258.403 39.4036 254.118 39.4277 249.869C39.4533 245.344 39.6206 240.797 40.1708 236.303C39.568 236.161 38.8996 236.039 38.2905 236.081C37.9888 236.564 37.4036 236.767 36.8748 236.704C35.7248 237.973 38.6416 239.27 39.5737 239.594C39.8974 239.707 39.8627 240.233 39.4894 240.217L39.2543 240.206C37.814 240.129 36.326 239.883 35.4791 238.544C34.8005 237.471 35.0044 236.2 35.8134 235.324C36.3477 230.271 37.625 225.349 38.8138 220.419C39.9804 215.58 41.2778 210.773 42.6529 205.989L43.2694 203.848C45.4346 196.348 47.6977 188.787 50.6843 181.584C52.1756 177.988 53.8936 174.458 56.2224 171.322C58.3932 168.399 60.9561 165.897 63.902 163.761C69.3939 159.778 75.8381 157.371 82.1698 155.078L82.4532 154.976C85.7344 153.788 89.0076 152.587 92.2514 151.3C95.1202 150.163 97.8686 148.72 100.724 147.565C100.631 147.397 100.542 147.227 100.455 147.054L100.403 147.099C100.394 147.106 100.384 147.113 100.375 147.119C100.088 147.319 99.6648 147.221 99.4281 146.997C98.76 146.367 98.9862 145.667 99.4322 145.012L99.4903 144.929C100.036 144.165 100.522 143.357 101.026 142.564L101.341 142.069C102.186 140.746 103.074 139.413 104.201 138.32C104.723 137.813 105.294 137.434 105.899 137.151C105.848 137.042 106.301 136.818 106.43 136.93C108.348 136.228 110.554 136.375 112.645 136.569M187.988 251.745L185.322 252.048C182.388 252.382 179.454 252.705 176.519 253.024L170.145 253.717C170.128 254.081 170.084 254.436 170.076 254.711C170.035 256.126 170.004 257.542 169.974 258.958C169.915 261.796 169.98 264.637 170.167 267.469C170.348 270.214 170.586 272.959 170.957 275.685L171.032 276.23L171.076 276.517C171.379 276.546 171.676 276.69 171.923 276.985C172.462 277.629 174.414 277.003 175.177 276.731C176.431 276.285 177.611 275.531 178.701 274.775C179.765 274.036 180.723 273.175 181.644 272.268L182.397 271.523C183.146 270.778 183.896 269.985 184.355 269.048C184.978 267.777 185.059 266.217 185.241 264.833C185.466 263.131 185.734 261.429 186.016 259.735M110.589 233.877L110.312 233.949C100.266 236.62 90.2353 239.369 80.1584 241.921C75.1717 243.185 70.1612 244.356 65.1684 245.596L64.36 245.798C60.4211 246.794 56.435 247.992 53.4187 250.85C53.3074 250.956 53.1458 250.794 53.2505 250.682C56.5013 247.22 61.1247 245.755 65.5639 244.484C66.3844 244.249 67.206 244.02 68.0268 243.787C61.9896 241.634 55.8572 239.76 49.5832 238.424C47.9676 238.08 46.3332 237.828 44.7189 237.482C43.5931 237.241 42.4936 236.893 41.3797 236.604L40.5035 236.384L40.4919 239.154C40.4773 243.078 40.4842 246.998 40.6843 250.921L40.7222 251.648C40.9557 256.014 41.3201 260.471 42.8689 264.587C44.1274 267.933 46.1334 271.084 48.7567 273.521C50.0841 274.753 51.5112 275.713 53.2753 276.187C54.9132 276.627 56.6293 276.678 58.3132 276.561C66.3897 275.997 73.5791 271.608 80.5949 267.974C92.0703 262.031 103.547 256.09 115.034 250.169C114.724 249.956 114.431 249.712 114.165 249.437C112.625 247.845 111.812 245.667 111.279 243.557C110.71 241.311 110.371 238.904 110.331 236.585M125.205 252.463C125.306 252.409 125.424 252.477 125.428 252.591C125.464 253.469 124.979 254.335 124.617 255.125L124.579 255.21C124.138 256.189 123.657 257.156 123.158 258.107C122.162 260.007 121.127 261.887 120.046 263.74C117.874 267.469 115.459 271.04 112.606 274.286C111.961 275.02 110.901 274.079 111.315 273.29C113.309 269.483 115.634 265.889 118.027 262.327C119.225 260.543 120.422 258.757 121.632 256.982C122.137 256.241 122.648 255.502 123.173 254.775L123.49 254.34M244.35 180.588C234.269 180.893 224.2 181.55 214.167 182.581C204.836 183.54 195.539 184.815 186.295 186.406C184.364 186.738 182.436 187.084 180.51 187.444L179.355 187.661C177.428 188.026 175.075 188.177 173.36 189.206C171.552 190.292 171.063 192.56 170.461 194.43C169.754 196.63 169.065 198.836 168.394 201.047C165.73 209.827 163.297 218.684 161.127 227.598C160.049 232.023 159.093 236.473 158.086 240.914C157.191 244.86 156.203 248.762 155.172 252.668C155.299 252.569 155.455 252.494 155.643 252.454C160.766 251.363 165.995 250.889 171.194 250.287L171.698 250.228C177.076 249.596 182.455 248.967 187.837 248.362L223.469 244.353C225.57 244.117 227.822 244.085 229.867 243.521C233.344 242.561 234.159 238.673 234.742 235.576L234.76 235.482C236.518 226.125 237.919 216.686 239.559 207.306M156.001 241.791C154.618 241.699 152.724 240.432 151.675 240.523C152.226 241.448 152.474 242.502 152.157 243.629C151.273 246.764 147.276 245.142 145.351 244.184C143.773 243.399 142.249 242.437 140.502 242.069C138.522 241.653 137.181 242.441 135.508 243.348C134.135 244.094 132.639 244.629 131.1 244.906C130.282 245.054 129.505 245.069 128.73 245.012C128.683 245.05 128.63 245.085 128.57 245.117L128.16 245.332C130.015 245.417 131.905 245.99 133.631 246.514C135.42 247.057 137.177 247.712 138.924 248.382L140.642 249.042C144.881 250.666 149.269 252.208 153.857 252.195C154.187 252.194 154.457 252.285 154.67 252.434M148.261 231.968C149.628 231.801 150.889 231.98 151.981 232.87C153.298 233.944 154.183 235.724 156.076 235.84C156.628 235.875 156.757 236.651 156.208 236.813C154.799 237.231 153.658 236.468 152.697 235.478L152.052 234.803C151.103 233.82 150.228 233.06 148.618 233.119C146.893 233.182 145.166 233.58 143.453 233.783C141.512 234.013 139.572 234.208 137.625 234.377C137.535 234.385 137.519 234.242 137.604 234.222L139.784 233.679M146.942 226.379L147.167 226.356C149.152 226.164 150.967 226.156 152.739 227.224L153.079 227.43C154.677 228.401 156.416 229.546 157.416 231.119C157.579 231.377 157.309 231.68 157.036 231.614C155.115 231.153 153.711 229.743 152.096 228.688C150.283 227.504 148.411 227.7 146.344 227.884C144.343 228.062 142.342 228.306 140.361 228.64C138.499 228.953 136.631 229.448 134.751 229.606L134.751 229.602C134.536 229.601 134.414 229.279 134.633 229.169C136.541 228.216 138.752 227.765 140.828 227.329M78.985 172.393C78.9825 172.236 79.2032 172.177 79.2803 172.313C80.5716 174.586 81.2466 177.372 81.9345 179.875C82.6549 182.498 83.2365 185.148 83.759 187.817C84.8172 193.221 85.3811 198.595 85.4194 204.103C85.4246 204.889 84.1439 205.098 84.0187 204.293C83.1869 198.935 82.39 193.571 81.5519 188.215C81.1302 185.521 80.6394 182.837 80.1698 180.151M91.7684 176.352C91.6733 176.038 92.1292 175.933 92.2458 176.22C94.8372 182.583 95.7148 189.795 94.0511 196.509C93.7965 197.536 92.2929 197.091 92.485 196.077M125.195 170.697C125.181 170.463 125.486 170.426 125.601 170.587C126.829 172.318 127.338 174.636 129.492 175.53C130.568 175.977 131.778 175.899 132.728 176.653C133.364 177.158 133.851 177.954 133.374 178.718C133.22 178.965 132.79 179.089 132.581 178.82C132.276 178.43 132.115 177.962 131.701 177.669C131.117 177.256 130.33 177.23 129.661 177.036C128.795 176.785 128.032 176.345 127.407 175.692M145.708 141.83C145.835 141.766 145.956 141.807 146.037 141.916C146.153 142.072 146.139 142.224 145.997 142.331C146.186 142.718 146.409 143.686 146.441 143.827C146.571 144.398 146.708 144.966 146.852 145.534C147.142 146.679 147.397 147.833 147.687 148.978C147.995 150.192 148.362 151.393 148.771 152.577C148.797 152.654 148.826 152.732 148.856 152.811L148.903 152.931L148.914 152.913C148.997 152.782 149.17 152.874 149.15 153.012C149.131 153.139 149.105 153.264 149.083 153.391L149.126 153.504C149.393 154.223 149.576 154.981 149.086 155.615C148.903 155.853 148.701 155.993 148.45 156.035C148.047 157.365 147.541 158.669 146.999 159.922L146.841 160.288C146.044 162.116 145.195 163.92 143.926 165.477C142.542 167.176 140.637 168.336 139.431 170.198C138.87 171.064 138.48 171.975 138.163 172.953L138.043 173.325C137.819 174.016 137.559 174.687 136.91 175.093C136.703 175.222 136.393 175.181 136.226 175.004C134.896 173.597 136.288 170.968 137.091 169.605C138.206 167.709 139.82 166.497 141.436 165.067C143.178 163.526 144.289 161.464 145.363 159.432C146.022 158.188 146.657 156.917 147.326 155.667C146.627 155.049 146.403 153.821 146.167 152.968L146.145 152.891C145.753 151.524 145.443 150.122 145.246 148.714C145.057 147.36 144.978 146.026 145.028 144.664L145.043 144.317M148.307 148.275C148.153 148.063 148.409 147.823 148.62 147.867C149.909 148.134 151.168 148.914 152.325 149.545L152.448 149.612C153.371 150.109 154.3 150.719 154.785 151.687C155.312 152.738 155.268 153.949 155.196 155.092L155.19 155.199C155.102 156.569 155.087 157.992 154.798 159.338C154.649 160.026 154.026 160.22 153.493 160.058C152.858 162.061 151.077 163.537 149.775 165.118C148.116 167.134 148.428 169.855 148.602 172.282C148.672 173.265 147.45 173.544 146.821 173.02L145.37 171.815C145.129 171.613 144.888 171.412 144.647 171.21C144.441 171.036 144.237 170.861 144.034 170.684L143.732 170.417C143.598 170.297 143.006 169.636 142.833 169.608C142.414 169.542 141.418 170.647 141.077 170.993L141.034 171.037C140.393 171.666 139.813 172.343 139.273 173.061C139.174 173.192 138.98 173.083 139.051 172.931C139.535 171.894 140.097 170.903 140.765 169.976L140.9 169.791C141.344 169.192 141.94 168.134 142.725 167.958C143.682 167.742 144.638 168.702 145.335 169.236L145.379 169.269C145.711 169.518 146.038 169.771 146.365 170.026C146.331 168.219 146.559 166.393 147.492 164.835C148.15 163.737 149.135 162.923 149.978 161.979C150.917 160.928 151.407 159.636 152.257 158.542C152.366 158.401 152.517 158.325 152.68 158.301C152.713 157.421 152.843 156.532 152.943 155.662L152.972 155.401C153.073 154.456 153.312 153.3 152.849 152.415C152.412 151.578 151.409 150.987 150.666 150.42L150.059 149.949M106.494 138.274C106.107 138.498 105.744 138.777 105.415 139.126C104.38 140.225 103.639 141.593 102.919 142.908C102.531 143.617 102.157 144.333 101.766 145.04C101.596 145.347 101.421 145.651 101.244 145.955C101.162 146.095 100.919 146.373 100.799 146.544C100.933 146.732 101.071 146.917 101.212 147.099C101.266 147.169 104.98 151.217 106.275 152.801C108.258 155.227 110.03 157.79 111.545 160.534C113.028 163.22 114.158 166.064 115.532 168.803C116.22 170.174 116.988 171.535 117.967 172.722C118.005 172.768 118.045 172.812 118.084 172.857C118.457 171.847 119.415 170.766 119.885 170.145L119.929 170.086C120.996 168.648 122.123 167.253 123.274 165.881C124.325 164.629 125.403 163.404 126.507 162.199L126.922 161.748C127.691 160.917 128.668 159.673 129.794 159.079C129.674 158.864 129.534 158.651 129.374 158.441C128.319 157.062 126.827 156.061 125.356 155.158L124.401 154.577C120.804 152.384 117.262 150.089 114.139 147.239C112.487 145.732 110.857 144.152 109.468 142.393L108.977 141.772M112.497 137.188C110.812 137.329 108.993 137.296 107.436 137.845C108.82 139.154 110.136 140.567 111.487 141.898C111.608 140.998 111.853 140.109 112.062 139.231" fill="black"/>
<path fill-rule="evenodd" clip-rule="evenodd" d="M164.267 102.294C163.812 98.2964 164.4 89.9404 164.44 89.4328C164.689 86.2234 163.186 73.5502 160.344 74.7179C155.578 70.943 149.229 70.1094 143.292 69.7112C130.961 68.884 117.843 70.783 108.321 79.0848C103.612 83.3962 99.028 89.6667 99.3965 96.1958C95.1182 102.385 89.0867 110.874 94.4173 118.109C96.2293 120.421 99.1091 121.281 101.385 123.032C105.964 126.726 108.836 132.028 113.458 135.701C125.704 146.708 146.496 149.008 158.527 136.488C167.83 127.42 166.326 113.854 164.689 102.294C163.589 94.5222 165.154 110.093 164.267 102.294Z" fill="white"/>
<path fill-rule="evenodd" clip-rule="evenodd" d="M126.82 52.7582C130.118 52.0924 133.504 51.6782 136.872 51.8029L137.132 51.813C139.665 51.9143 142.875 52.1384 145.085 53.6124C145.212 53.4848 145.417 53.4193 145.602 53.5078C148.229 54.7622 151.118 55.6691 153.884 56.5703C156.638 57.4671 159.494 58.059 162.38 58.2977C163.465 58.3875 164.395 59.5603 163.707 60.6122C163.544 60.8628 163.384 61.116 163.226 61.3698C163.491 61.3422 163.756 61.3136 164.022 61.2868C164.895 61.1989 165.767 62.1311 165.715 62.9816C165.683 63.5165 165.625 64.0451 165.54 64.5674C165.873 64.5604 166.203 64.6103 166.523 64.7453C168.14 65.4286 168.027 67.3559 167.906 68.8223C167.739 70.8572 166.978 73.0125 165.565 74.5355C166.62 75.6313 167.367 76.94 167.812 78.4943C168.135 79.6292 168.315 80.8382 168.226 82.0196L168.198 82.3733C168.088 83.6554 167.87 85.0749 166.948 85.9972C166.475 86.4728 165.892 86.6461 165.336 86.5911C165.672 89.5458 165.887 92.5174 166.09 95.4784L166.185 96.8936C166.638 103.737 166.978 110.625 166.889 117.48C166.806 123.886 165.541 130.104 161.613 135.305C158.036 140.042 152.901 143.533 147.091 144.86C143.96 145.577 140.763 145.628 137.594 145.171C136.058 144.949 134.512 144.609 133.054 144.072C131.44 143.476 130.28 142.599 129.194 141.284C128.681 140.661 128.928 139.334 129.951 139.458C131.497 139.646 132.91 139.872 134.392 140.33L134.605 140.397C136.082 140.87 137.611 141.223 139.155 141.373C142.318 141.68 145.529 141.371 148.559 140.411C153.492 138.847 157.741 135.362 160.464 130.983C163.696 125.792 164.062 119.9 164.015 113.931C163.965 107.382 163.752 100.829 163.405 94.2862L163.346 93.1958C163.162 89.829 162.984 86.4601 162.828 83.0912C162.78 82.0344 162.706 80.9692 162.572 79.9146C161.354 79.2002 160.261 78.2153 159.549 77C158.119 77.5918 156.615 78.0188 155.231 78.359C152.025 79.1478 148.697 79.3393 145.434 78.8453C144.554 79.2091 143.656 79.5289 142.744 79.804C142.498 79.9133 142.252 80.0207 142.006 80.1259C139.808 81.0664 137.579 81.8632 135.26 82.4465L134.69 82.5887C133.469 82.8897 132.143 83.1862 130.844 83.2793C130.631 83.3617 130.401 83.4314 130.149 83.4927C128.966 83.7802 127.739 83.871 126.526 83.7696C125.345 83.6703 124.491 82.4761 125.142 81.3581C125.617 80.5423 126.097 79.7286 126.581 78.917C124.897 79.6187 123.158 80.202 121.405 80.6966C119.635 81.1953 117.839 81.6159 116.041 82.0027C115.079 82.2077 114.114 82.3895 113.155 82.5945C112.468 82.7403 111.414 82.8164 110.854 83.2687C110.235 83.7654 110.06 84.9236 109.825 85.6379C109.517 86.5658 109.227 87.4978 108.963 88.4404C108.437 90.3215 108.006 92.2299 107.673 94.1575C107.339 96.0871 107.115 98.0357 106.99 99.9907C106.866 101.944 106.92 103.909 106.72 105.854C106.612 106.885 105.505 107.415 104.687 106.695C104.591 106.61 104.495 106.525 104.399 106.438L104.256 106.308C103.557 105.674 102.879 105.002 102.319 104.245C102.218 104.106 102.12 103.96 102.03 103.812C102.015 103.812 102.002 103.808 101.987 103.797L101.832 103.68C100.124 102.408 97.2689 100.749 95.6028 102.863C95.0719 103.536 94.8001 104.394 94.5745 105.221L94.1787 106.701C93.9226 107.668 93.6816 108.639 93.5407 109.628C93.2216 111.843 93.3822 114.396 94.9057 116.172C95.5141 116.882 96.3528 117.389 97.2885 117.522C97.8106 117.594 98.3261 117.505 98.8437 117.44C99.3697 117.374 99.8766 117.48 100.403 117.429C101.239 117.347 101.605 118.349 101.292 118.978C101.123 119.317 100.924 119.608 100.699 119.856C100.88 120.012 101.054 120.181 101.22 120.359C101.715 120.517 102.158 120.857 102.49 121.308C102.758 121.671 102.898 122.066 102.921 122.483C102.951 122.586 102.976 122.692 102.999 122.8L103.453 123.536C103.552 123.697 103.652 123.856 103.751 124.013C104.905 125.83 106.185 127.369 107.776 128.819C109.308 130.214 110.97 131.463 112.409 132.959L112.579 133.137C113.92 134.551 115.334 136.263 114.809 138.319C114.674 138.847 113.936 139.228 113.455 138.871C111.906 137.721 111.127 135.899 109.813 134.504C108.46 133.067 106.962 131.776 105.606 130.343C104.324 128.99 103.312 127.458 102.549 125.771C102.245 126.107 101.801 126.346 101.187 126.439C100.13 126.598 99.1456 125.978 98.6852 125.063C98.3892 125.194 98.0873 125.313 97.7829 125.406C96.1815 125.896 95.174 124.114 95.7782 122.798C96.1012 122.092 96.5047 121.479 97.0057 120.963C95.4399 120.747 93.847 119.938 92.8181 118.928C90.2366 116.389 89.8817 112.575 90.4627 109.182C90.7711 107.384 91.3033 105.564 91.9944 103.875C92.1146 103.582 92.2437 103.286 92.385 102.994C92.3068 102.992 92.2266 102.958 92.1759 102.893C91.709 102.254 91.1409 101.732 90.7942 101.018C90.4752 100.363 90.1204 99.6991 89.8688 99.0164C89.3514 97.6194 89.0979 96.0427 88.9289 94.5654C88.5803 91.5409 88.7153 88.5355 89.1782 85.5301C89.966 80.4112 91.8691 75.5126 94.6728 71.2141C94.5202 71.1339 94.3739 71.037 94.2376 70.9225L94.1702 70.8637L94.0608 70.7648C93.2607 70.0405 93.3298 68.683 94.0608 67.9494L94.2917 67.7179C94.584 67.4273 94.8361 67.1972 95.3083 66.8808C95.378 66.8341 95.4492 66.7901 95.5213 66.7491C95.2741 66.2922 95.1883 65.7579 95.3605 65.1684C95.9605 63.115 98.914 63.1877 100.786 64.0832C102.857 62.2341 105.154 60.6289 107.643 59.3291C113.571 56.2349 120.274 54.077 126.82 52.7582ZM96.1754 106.843C97.2825 106.481 98.7529 107.24 99.748 107.697C101.009 108.276 102.082 109.132 103.122 110.036C103.64 110.488 103.732 111.228 103.604 111.86C103.591 111.924 103.578 111.989 103.563 112.055C103.426 112.729 102.674 113.259 102.008 113.24C100.616 113.202 99.9529 112 99.1647 110.981C99.0719 111.146 98.9557 111.298 98.8118 111.412L98.7147 111.488C98.3876 111.737 98.0271 111.936 97.5949 111.917C97.2886 111.902 96.9952 111.824 96.7245 111.683C96.0485 111.325 95.7508 110.45 95.9344 109.738C96.0485 109.29 96.3104 108.939 96.6527 108.696L96.5251 108.609C96.2521 108.419 96.0032 108.219 95.8091 107.923L95.7654 107.853H95.7823C95.571 107.489 95.7085 106.995 96.1754 106.843Z" fill="black"/>
<path fill-rule="evenodd" clip-rule="evenodd" d="M148.319 128.112C146.762 128.563 145.092 128.603 143.505 128.137C142.066 127.715 140.589 126.785 139.53 125.555C138.589 124.462 137.98 123.134 138.004 121.717C138.007 121.555 138.065 121.42 138.154 121.315C138.249 121.202 138.383 121.124 138.527 121.091C138.674 121.056 138.83 121.068 138.963 121.129C139.083 121.183 139.186 121.276 139.25 121.412C139.413 121.626 139.575 121.836 139.738 122.041C141.046 123.658 142.314 124.866 144.281 125.299C145.349 125.534 146.415 125.43 147.394 125.071C148.441 124.687 149.388 124.012 150.13 123.148C150.465 122.757 150.861 122.598 151.248 122.595C151.686 122.592 152.12 122.796 152.446 123.122C152.767 123.442 152.982 123.878 153.002 124.333C153.019 124.732 152.889 125.15 152.542 125.522C151.4 126.749 149.92 127.648 148.319 128.112ZM148.271 107.866C149.866 108.836 152.297 111.098 150.581 113.503C148.56 115.624 145.652 113.193 144.218 112.093C142.889 111.241 141.396 113.433 142.629 114.428C152.986 122.099 157.19 108.12 149.078 106.726C148.184 106.572 147.853 107.566 148.271 107.866ZM133.347 103.598C132.834 103.27 132.231 103.157 131.562 103.461C131.04 103.699 130.124 104.491 129.486 105.533C129.05 106.245 128.741 107.081 128.805 107.952C128.82 108.154 128.745 108.303 128.627 108.413C128.534 108.5 128.4 108.564 128.242 108.584C128.108 108.601 127.958 108.586 127.836 108.548C127.604 108.475 127.481 108.325 127.435 108.202C126.989 107.016 127.181 105.692 127.681 104.498C128.357 102.886 129.583 101.536 130.386 101.101C131.761 100.356 133.383 100.322 134.76 101.081C135.932 101.727 136.665 102.77 137.394 103.833C137.549 104.059 137.702 104.283 137.861 104.504C138.18 104.945 138.212 105.383 138.088 105.759C137.952 106.175 137.603 106.526 137.167 106.71C136.765 106.88 136.297 106.903 135.884 106.729C135.534 106.581 135.214 106.294 135.011 105.807C134.669 104.985 134.1 104.079 133.347 103.598V103.598ZM159.389 105.425C159.038 105.608 158.763 105.663 158.373 105.546C158.158 105.481 157.945 105.357 157.778 105.19C157.613 105.025 157.494 104.82 157.448 104.592C157.334 104.029 157.026 103.502 156.587 103.159C156.213 102.865 155.739 102.71 155.215 102.798C154.648 102.892 154.109 103.256 153.737 103.684C153.613 103.827 153.516 103.99 153.418 104.152C153.235 104.454 153.057 104.735 152.804 104.957C152.709 105.042 152.564 105.1 152.425 105.1C152.368 105.1 152.31 105.091 152.255 105.074C151.692 104.508 151.583 104.079 151.602 103.653C151.621 103.206 151.797 102.754 152.081 102.332C152.748 101.343 154.015 100.531 154.869 100.348C156.04 100.096 157.202 100.398 158.134 101.052C159.093 101.725 159.804 102.77 160.026 103.947C160.079 104.231 160.056 104.537 159.948 104.802C159.843 105.062 159.659 105.284 159.389 105.425ZM135.928 93.0475C135.226 93.7322 134.394 93.8382 133.553 93.9325C133.086 93.9855 132.713 94.0281 132.346 94.111C131.337 94.3388 130.339 94.682 129.429 95.1763C128.478 95.693 127.441 96.3162 126.696 97.1145C126.518 97.3044 126.351 97.5037 126.184 97.7035C126.031 97.8857 125.884 98.061 125.729 98.2301C125.551 98.4243 125.382 98.6279 125.214 98.8309C125.11 99.0022 125.089 99.0444 125.068 99.0882C125.037 99.1541 125 99.2279 124.958 99.307C124.901 99.4154 124.834 99.534 124.764 99.6416C124.647 99.8382 124.584 99.8923 124.53 99.9165C124.44 99.9566 124.354 99.9764 124.271 99.9657C124.194 99.9557 124.121 99.9184 124.048 99.8573C123.688 99.5525 123.581 99.0522 123.592 98.5212C123.609 97.7153 123.906 96.8231 124.18 96.2747C124.817 95.0003 125.7 93.6755 126.762 92.7244C127.974 91.6387 129.3 90.8168 130.822 90.2504C131.769 89.8983 132.864 89.5751 133.895 89.6159C134.637 89.6453 135.346 89.866 135.931 90.4171C136.29 90.7554 136.463 91.2366 136.463 91.7175C136.463 92.208 136.284 92.7013 135.928 93.0475ZM160.818 99.3172C160.773 99.3904 160.711 99.4409 160.642 99.4712C160.57 99.503 160.49 99.5122 160.412 99.4991C160.335 99.4862 160.262 99.4513 160.204 99.398C160.149 99.3469 160.106 99.2791 160.087 99.1961C159.621 97.1469 158.715 95.6223 156.783 94.6392C155.832 94.1555 154.738 93.8482 153.703 93.6032C153.403 93.532 153.085 93.4859 152.765 93.4392C151.762 93.2926 150.751 93.1248 150.098 92.3137C149.704 91.8251 149.538 91.2003 149.632 90.6288C149.72 90.0908 150.034 89.5974 150.605 89.3018C152.028 88.5661 153.795 89.288 155.232 89.903C155.338 89.9486 155.443 89.9934 155.545 90.0366C156.95 90.6297 158.231 91.4127 159.284 92.5323C160.119 93.4206 160.894 94.7338 161.205 96.0847C161.465 97.2085 161.404 98.3559 160.818 99.3172Z" fill="black"/>
<path fill-rule="evenodd" clip-rule="evenodd" d="M148.503 116.101C146.154 115.042 141.935 115.966 140.403 116.333C136.842 117.188 133.26 119.034 132.153 121.926C130.905 125.186 133.394 126.212 133.76 126.044C136.225 126.218 139.161 124.668 141.744 124.268C143.841 123.94 146.053 123.654 148.018 122.539C149.453 123.329 152.693 123.755 155.308 124.446C157.535 125.033 158.499 126.307 160.564 126.037C163.038 125.712 162.025 120.506 159.268 118.397C156.25 116.088 151.145 115.152 148.503 116.101ZM153.155 138.361C151.1 138.863 150.962 134.356 150.731 132.763C150.551 131.519 149.537 128.311 146.964 128.45C144.392 128.588 143.425 131.276 143.556 132.948C143.64 134.032 144.639 139.523 141.451 140.218C139.419 140.21 137.068 140.073 134.931 139.679C132.416 139.109 129.146 137.114 128.282 141.043C127.971 142.457 139.05 146.658 143.966 147.038C148.951 148.049 154.785 146.495 158.334 142.679C159.142 141.811 161.416 138.208 161.578 137.326C161.919 135.471 161.13 134.278 158.836 134.931C157.216 135.797 154.477 138.039 153.155 138.361Z" fill="black"/>
<path fill-rule="evenodd" clip-rule="evenodd" d="M163.095 111.465C159.925 112.993 155.501 110.74 153.369 108.379C152.593 107.52 151.995 105.061 152.293 103.502C153.102 99.2791 156.14 96.7446 159.347 95.8791C163.793 94.679 168.267 97.7191 167.745 101.307C167.251 104.707 166.502 109.638 163.095 111.465M141.514 103.353C141.26 107.955 137.566 111.983 133.15 113.177C126.036 115.163 122.52 110.16 120.928 104.77C120.769 104.235 120.397 102.6 121.395 101.198C125.321 95.6827 134.873 96.6228 139.644 98.1369C141.041 99.4729 141.612 101.401 141.514 103.353M166.54 95.4154C166.538 95.4181 166.536 95.4205 166.534 95.4232C166.517 95.4133 166.501 95.4031 166.485 95.3934C166.503 95.401 166.522 95.4076 166.54 95.4154M172.493 95.9474C172.079 91.2617 157.383 93.0559 155.665 93.4399C150.975 94.8196 146.925 98.5732 141.682 96.9232C136.25 90.8652 117.957 92.6025 114.122 95.6884C113.396 95.4035 112.513 95.5564 111.578 95.8252C106.775 95.6517 84.8487 97.308 89.3335 103.44C90.0142 103.913 90.6943 103.432 90.7131 102.459C114.093 94.0162 111.826 101.924 114.599 101.001C115.022 101.123 115.464 101.2 115.851 101.281C117.997 101.972 118.725 101.758 119.008 104.168C120.95 122.778 145.722 116.355 143.691 101.09C145.702 100.98 147.462 100.109 149.589 100.959C151.066 115.339 162.633 115.919 166.114 110.934C168.739 107.475 167.698 102.253 171.307 99.5316C172.731 100.724 172.823 96.6995 172.493 95.9474" fill="black"/>
<path d="M214.083 211.069C213.682 210.679 213.042 210.686 212.652 211.087C212.261 211.488 212.269 212.128 212.67 212.519C212.673 212.522 213.005 212.907 212.973 213.643C212.959 213.968 212.862 214.447 212.552 215.066C212.876 215.246 213.177 215.462 213.44 215.72C213.679 215.954 213.885 216.22 214.061 216.509C214.634 215.555 214.958 214.626 214.996 213.729C215.067 212.077 214.184 211.167 214.083 211.069Z" fill="black"/>
<path d="M210.257 215.84C208.91 215.84 207.48 216.512 206.699 217.599C202.701 223.176 198.656 223.462 196.529 223.462C196.285 223.462 196.067 223.458 195.877 223.458C195.137 223.458 194.821 223.515 195.101 224.068C195.765 225.379 198.792 226.985 202.51 226.985C205.505 226.985 208.948 225.943 211.963 222.866C213.485 221.315 214.046 218.205 212.495 216.684C211.9 216.1 211.094 215.84 210.257 215.84Z" fill="black"/>
<path d="M197.595 220.786C197.519 219.802 197.703 217.568 200.638 216.309C200.638 216.309 199.549 218.945 201.025 220.279C202.096 219.443 202.849 218.078 202.926 216.758C203.148 212.949 200.49 210.945 198.763 210.052C198.587 209.961 198.371 209.992 198.228 210.13C198.085 210.268 198.046 210.482 198.13 210.662C198.797 212.078 199.246 214.61 196.393 217.558C195.522 218.458 196.231 220.113 197.595 220.786Z" fill="black"/>
</svg>
