<svg width="676" height="326" viewBox="0 0 676 326" fill="none" xmlns="http://www.w3.org/2000/svg">
<path d="M84.5483 44.3778H114.023C113.597 18.4545 92.2898 0.556813 59.9034 0.556813C28.0142 0.556813 4.64773 18.1705 4.78977 44.5909C4.71875 66.0398 19.8466 78.3267 44.4205 84.2216L60.2585 88.1989C76.0966 92.0341 84.9034 96.5795 84.9744 106.381C84.9034 117.034 74.8182 124.278 59.1932 124.278C43.2131 124.278 31.7074 116.892 30.7131 102.332H0.954545C1.7358 133.795 24.25 150.06 59.5483 150.06C95.0597 150.06 115.94 133.085 116.011 106.452C115.94 82.233 97.6875 69.3778 72.4034 63.696L59.3352 60.571C46.6932 57.6591 36.1108 52.9716 36.3239 42.5312C36.3239 33.1562 44.6335 26.267 59.6903 26.267C74.392 26.267 83.4119 32.9432 84.5483 44.3778ZM157.237 150.06C173.359 150.06 183.799 143.028 189.126 132.872H189.978V148H218.671V74.4205C218.671 48.4261 196.654 37.4886 172.364 37.4886C146.228 37.4886 129.04 49.9886 124.85 69.875L152.833 72.1477C154.893 64.9034 161.356 59.5767 172.222 59.5767C182.521 59.5767 188.415 64.7614 188.415 73.7102V74.1364C188.415 81.1676 180.958 82.0909 161.995 83.9375C140.404 85.9261 121.015 93.1705 121.015 117.531C121.015 139.122 136.427 150.06 157.237 150.06ZM165.901 129.179C156.597 129.179 149.921 124.847 149.921 116.537C149.921 108.014 156.952 103.824 167.606 102.332C174.211 101.409 185.006 99.8466 188.629 97.4318V109.009C188.629 120.443 179.183 129.179 165.901 129.179ZM302.102 101.551C302.173 116.182 292.158 123.852 281.292 123.852C269.857 123.852 262.471 115.827 262.4 102.972V38.9091H232.144V108.369C232.215 133.866 247.13 149.42 269.076 149.42C285.482 149.42 297.272 140.969 302.173 128.185H303.309V148H332.357V38.9091H302.102V101.551ZM395.848 150.131C424.896 150.131 443.149 133.085 444.57 108.014H416.018C414.243 119.662 406.572 126.196 396.203 126.196C382.07 126.196 372.908 114.335 372.908 93.4545C372.908 72.858 382.141 61.0682 396.203 61.0682C407.283 61.0682 414.385 68.3835 416.018 79.25H444.57C443.291 54.0369 424.186 37.4886 395.706 37.4886C362.609 37.4886 342.155 60.429 342.155 93.8807C342.155 127.048 362.254 150.131 395.848 150.131ZM503.657 150.131C530.646 150.131 548.827 136.991 553.089 116.75L525.106 114.903C522.052 123.213 514.239 127.545 504.154 127.545C489.026 127.545 479.438 117.531 479.438 101.267V101.196H553.728V92.8864C553.728 55.8125 531.285 37.4886 502.45 37.4886C470.347 37.4886 449.538 60.2869 449.538 93.9517C449.538 128.54 470.063 150.131 503.657 150.131ZM479.438 82.446C480.077 70.017 489.523 60.0739 502.947 60.0739C516.086 60.0739 525.177 69.4489 525.248 82.446H479.438ZM84.5483 219.378H114.023C113.597 193.455 92.2898 175.557 59.9034 175.557C28.0142 175.557 4.64773 193.17 4.78977 219.591C4.71875 241.04 19.8466 253.327 44.4205 259.222L60.2585 263.199C76.0966 267.034 84.9034 271.58 84.9744 281.381C84.9034 292.034 74.8182 299.278 59.1932 299.278C43.2131 299.278 31.7074 291.892 30.7131 277.332H0.954545C1.7358 308.795 24.25 325.06 59.5483 325.06C95.0597 325.06 115.94 308.085 116.011 281.452C115.94 257.233 97.6875 244.378 72.4034 238.696L59.3352 235.571C46.6932 232.659 36.1108 227.972 36.3239 217.531C36.3239 208.156 44.6335 201.267 59.6903 201.267C74.392 201.267 83.4119 207.943 84.5483 219.378ZM184.154 213.909H163.629V187.773H133.373V213.909H118.458V236.636H133.373V293.455C133.231 314.832 147.79 325.415 169.737 324.491C177.549 324.207 183.089 322.645 186.143 321.651L181.384 299.136C179.893 299.42 176.697 300.131 173.856 300.131C167.819 300.131 163.629 297.858 163.629 289.477V236.636H184.154V213.909ZM263.82 276.551C263.891 291.182 253.877 298.852 243.011 298.852C231.576 298.852 224.19 290.827 224.119 277.972V213.909H193.863V283.369C193.934 308.866 208.849 324.42 230.795 324.42C247.201 324.42 258.991 315.969 263.891 303.185H265.028V323H294.076V213.909H263.82V276.551ZM348.476 324.776C366.089 324.776 375.251 314.619 379.442 305.528H380.72V323H410.55V177.545H380.365V232.233H379.442C375.393 223.355 366.658 212.489 348.405 212.489C324.47 212.489 304.229 231.097 304.229 268.597C304.229 305.102 323.618 324.776 348.476 324.776ZM358.064 300.699C343.22 300.699 335.124 287.489 335.124 268.455C335.124 249.562 343.078 236.565 358.064 236.565C372.766 236.565 381.004 248.994 381.004 268.455C381.004 287.915 372.624 300.699 358.064 300.699ZM425.425 323H455.681V213.909H425.425V323ZM440.624 199.847C449.644 199.847 457.031 192.957 457.031 184.506C457.031 176.125 449.644 169.236 440.624 169.236C431.675 169.236 424.289 176.125 424.289 184.506C424.289 192.957 431.675 199.847 440.624 199.847ZM519.207 325.131C552.304 325.131 572.901 302.474 572.901 268.881C572.901 235.074 552.304 212.489 519.207 212.489C486.111 212.489 465.514 235.074 465.514 268.881C465.514 302.474 486.111 325.131 519.207 325.131ZM519.349 301.693C504.08 301.693 496.267 287.702 496.267 268.668C496.267 249.634 504.08 235.571 519.349 235.571C534.335 235.571 542.148 249.634 542.148 268.668C542.148 287.702 534.335 301.693 519.349 301.693ZM673.341 245.017C670.642 224.918 654.449 212.489 626.892 212.489C598.98 212.489 580.585 225.415 580.656 246.438C580.585 262.773 590.884 273.355 612.19 277.616L631.082 281.381C640.599 283.298 644.932 286.778 645.074 292.247C644.932 298.71 637.901 303.327 627.318 303.327C616.523 303.327 609.349 298.71 607.503 289.832L577.744 291.395C580.585 312.276 598.341 325.131 627.247 325.131C655.514 325.131 675.756 310.713 675.827 289.193C675.756 273.426 665.457 263.98 644.293 259.648L624.548 255.67C614.392 253.469 610.628 249.989 610.699 244.733C610.628 238.199 618.014 233.938 627.389 233.938C637.901 233.938 644.151 239.69 645.642 246.722L673.341 245.017Z" fill="white"/>
</svg>
