<svg width="354" height="300" viewBox="0 0 354 300" fill="none" xmlns="http://www.w3.org/2000/svg">
<path d="M337.062 18.8768C329.985 11.9852 318.671 12.1248 311.779 19.203C304.886 26.2802 305.027 37.5959 312.104 44.4875C312.162 44.5459 318.019 51.344 317.46 64.3475C317.212 70.0904 315.503 78.5527 310.023 89.4809C315.751 92.6597 321.059 96.4786 325.714 101.041C329.927 105.172 333.56 109.871 336.677 114.97C346.803 98.1256 352.51 81.7114 353.188 65.8726C354.443 36.688 338.844 20.6114 337.062 18.8768Z" fill="black"/>
<path d="M269.476 103.147C245.691 103.147 220.431 115.021 206.646 134.228C136.03 232.725 64.577 237.778 26.9998 237.778C22.7031 237.778 18.85 237.707 15.4975 237.707C2.42438 237.707 -3.1633 238.708 1.78423 248.476C13.5058 271.642 66.9753 300 132.654 300C185.552 300 246.367 281.595 299.625 227.254C326.492 199.85 336.412 144.915 309.02 118.059C298.496 107.746 284.269 103.147 269.476 103.147Z" fill="black"/>
<path d="M45.8421 190.519C44.4998 173.126 47.7448 133.665 99.5929 111.444C99.5929 111.444 80.3445 157.997 106.415 181.55C125.33 166.788 138.635 142.678 140 119.359C143.924 52.0962 96.9616 16.695 66.4725 0.921672C63.3535 -0.696719 59.5463 -0.149848 57.0212 2.29527C54.4832 4.72847 53.7961 8.51118 55.2866 11.6897C67.0663 36.696 74.9939 81.4323 24.6001 133.501C9.21415 149.391 21.7512 178.619 45.8421 190.519Z" fill="black"/>
</svg>
