<svg width="326" height="36" viewBox="0 0 326 36" fill="none" xmlns="http://www.w3.org/2000/svg">
<path d="M15.744 7.4C14.4 7.4 13.296 7.704 12.432 8.312C11.6 8.888 11.184 9.624 11.184 10.52C11.184 11.672 11.776 12.6 12.96 13.304C14.144 13.976 15.904 14.536 18.24 14.984C22.624 15.816 25.744 16.968 27.6 18.44C29.456 19.912 30.384 22.184 30.384 25.256C30.384 28.264 29.152 30.728 26.688 32.648C24.224 34.536 20.896 35.48 16.704 35.48C13.216 35.48 10.064 34.712 7.248 33.176C4.432 31.64 2.304 29.048 0.864 25.4L7.344 21.32C8.016 23.752 9.184 25.608 10.848 26.888C12.544 28.136 14.576 28.76 16.944 28.76C18.704 28.76 20.096 28.472 21.12 27.896C22.176 27.32 22.704 26.52 22.704 25.496C22.704 24.312 22.176 23.4 21.12 22.76C20.096 22.12 18.144 21.592 15.264 21.176C11.552 20.664 8.656 19.512 6.576 17.72C4.528 15.928 3.504 13.496 3.504 10.424C3.504 7.736 4.64 5.48 6.912 3.656C9.216 1.832 12.24 0.919998 15.984 0.919998C19.216 0.919998 21.936 1.64 24.144 3.08C26.384 4.488 27.984 6.568 28.944 9.32L22.704 12.92C22.096 11 21.232 9.608 20.112 8.744C18.992 7.848 17.536 7.4 15.744 7.4ZM33.5573 28.328C33.5573 25.96 34.3413 24.168 35.9093 22.952C37.4773 21.704 39.7013 21.08 42.5813 21.08C43.8293 21.08 45.0773 21.224 46.3253 21.512L47.9573 21.896V20.744C47.9573 19.656 47.6053 18.808 46.9013 18.2C46.2293 17.592 45.2533 17.288 43.9733 17.288C41.5413 17.288 40.0853 18.312 39.6053 20.36L33.5093 18.728C34.2133 16.552 35.4773 14.856 37.3013 13.64C39.1253 12.392 41.3653 11.768 44.0213 11.768C51.2853 11.768 54.9173 14.888 54.9173 21.128V35H48.4373V31.88C47.4773 33.192 46.4373 34.12 45.3173 34.664C44.1973 35.208 42.7573 35.48 40.9973 35.48C38.9173 35.48 37.1573 34.824 35.7173 33.512C34.2773 32.168 33.5573 30.44 33.5573 28.328ZM47.9573 26.84V26.696L47.0453 26.312C45.9573 25.864 44.8533 25.64 43.7333 25.64C41.7493 25.64 40.7573 26.44 40.7573 28.04C40.7573 28.776 41.0293 29.352 41.5733 29.768C42.1173 30.184 42.8853 30.392 43.8773 30.392C45.0613 30.392 46.0373 30.072 46.8053 29.432C47.5733 28.76 47.9573 27.896 47.9573 26.84ZM76.0871 12.248H83.2871V35H76.0871V31.88C75.6071 32.968 74.7591 33.848 73.5431 34.52C72.3271 35.16 70.9351 35.48 69.3671 35.48C66.6151 35.48 64.4391 34.712 62.8391 33.176C61.2711 31.64 60.4871 29.448 60.4871 26.6V12.248H67.6871V24.68C67.6871 27.72 68.9671 29.24 71.5271 29.24C73.0311 29.24 74.1671 28.76 74.9351 27.8C75.7031 26.84 76.0871 25.48 76.0871 23.72V12.248ZM96.2865 27.512C97.3105 28.504 98.5745 29 100.079 29C101.583 29 102.783 28.568 103.679 27.704C104.575 26.84 105.119 25.672 105.311 24.2L112.031 26.504C110.463 32.488 106.479 35.48 100.079 35.48C96.3665 35.48 93.3585 34.376 91.0545 32.168C88.7505 29.96 87.5985 27.064 87.5985 23.48C87.5985 20.12 88.7665 17.336 91.1025 15.128C93.4705 12.888 96.3025 11.768 99.5985 11.768C102.543 11.768 105.007 12.488 106.991 13.928C109.007 15.336 110.303 17.32 110.879 19.88L104.543 22.04C104.319 20.856 103.775 19.928 102.911 19.256C102.079 18.584 101.055 18.248 99.8385 18.248C98.4625 18.248 97.2785 18.728 96.2865 19.688C95.2945 20.648 94.7985 21.928 94.7985 23.528C94.7985 25.192 95.2945 26.52 96.2865 27.512ZM131.587 26.312L137.683 28.712C136.915 30.824 135.603 32.488 133.747 33.704C131.891 34.888 129.651 35.48 127.027 35.48C123.507 35.48 120.579 34.36 118.243 32.12C115.907 29.88 114.739 27 114.739 23.48C114.739 20.184 115.827 17.416 118.003 15.176C120.211 12.904 122.979 11.768 126.307 11.768C129.635 11.768 132.259 12.728 134.179 14.648C136.131 16.504 137.107 19.032 137.107 22.232C137.107 23.192 137.011 24.168 136.819 25.16H121.939C122.067 26.376 122.595 27.368 123.523 28.136C124.483 28.904 125.683 29.288 127.123 29.288C129.331 29.288 130.819 28.296 131.587 26.312ZM121.939 20.36H130.195C130.195 19.464 129.843 18.744 129.139 18.2C128.467 17.656 127.523 17.384 126.307 17.384C125.347 17.384 124.467 17.656 123.667 18.2C122.867 18.712 122.291 19.432 121.939 20.36ZM165.744 7.4C164.4 7.4 163.296 7.704 162.432 8.312C161.6 8.888 161.184 9.624 161.184 10.52C161.184 11.672 161.776 12.6 162.96 13.304C164.144 13.976 165.904 14.536 168.24 14.984C172.624 15.816 175.744 16.968 177.6 18.44C179.456 19.912 180.384 22.184 180.384 25.256C180.384 28.264 179.152 30.728 176.688 32.648C174.224 34.536 170.896 35.48 166.704 35.48C163.216 35.48 160.064 34.712 157.248 33.176C154.432 31.64 152.304 29.048 150.864 25.4L157.344 21.32C158.016 23.752 159.184 25.608 160.848 26.888C162.544 28.136 164.576 28.76 166.944 28.76C168.704 28.76 170.096 28.472 171.12 27.896C172.176 27.32 172.704 26.52 172.704 25.496C172.704 24.312 172.176 23.4 171.12 22.76C170.096 22.12 168.144 21.592 165.264 21.176C161.552 20.664 158.656 19.512 156.576 17.72C154.528 15.928 153.504 13.496 153.504 10.424C153.504 7.736 154.64 5.48 156.912 3.656C159.216 1.832 162.24 0.919998 165.984 0.919998C169.216 0.919998 171.936 1.64 174.144 3.08C176.384 4.488 177.984 6.568 178.944 9.32L172.704 12.92C172.096 11 171.232 9.608 170.112 8.744C168.992 7.848 167.536 7.4 165.744 7.4ZM187.253 26.84V18.008H182.453V12.248H187.253V4.52H194.453V12.248H202.853V18.008H194.453V26.6C194.453 28.2 195.205 29 196.709 29C198.053 29 198.821 28.168 199.013 26.504L205.541 27.608C205.125 30.136 204.117 32.088 202.517 33.464C200.917 34.808 198.821 35.48 196.229 35.48C193.381 35.48 191.173 34.728 189.605 33.224C188.037 31.688 187.253 29.56 187.253 26.84ZM224.681 12.248H231.881V35H224.681V31.88C224.201 32.968 223.353 33.848 222.137 34.52C220.921 35.16 219.529 35.48 217.961 35.48C215.209 35.48 213.033 34.712 211.433 33.176C209.865 31.64 209.081 29.448 209.081 26.6V12.248H216.281V24.68C216.281 27.72 217.561 29.24 220.121 29.24C221.625 29.24 222.761 28.76 223.529 27.8C224.297 26.84 224.681 25.48 224.681 23.72V12.248ZM239.36 32.264C237.248 30.12 236.192 27.272 236.192 23.72C236.192 20.168 237.248 17.288 239.36 15.08C241.504 12.872 244.128 11.768 247.232 11.768C248.64 11.768 249.952 12.072 251.168 12.68C252.416 13.288 253.424 14.088 254.192 15.08V1.4H261.392V35H254.432V32.36C252.864 34.44 250.544 35.48 247.472 35.48C244.208 35.48 241.504 34.408 239.36 32.264ZM254.432 23.72C254.432 21.864 253.904 20.408 252.848 19.352C251.824 18.296 250.512 17.768 248.912 17.768C247.312 17.768 245.984 18.296 244.928 19.352C243.904 20.408 243.392 21.864 243.392 23.72C243.392 25.48 243.904 26.888 244.928 27.944C245.984 28.968 247.312 29.48 248.912 29.48C250.512 29.48 251.824 28.968 252.848 27.944C253.904 26.888 254.432 25.48 254.432 23.72ZM266.972 12.248H274.172V35H266.972V12.248ZM266.732 9.32V1.88H274.412V9.32H266.732ZM281.882 32.168C279.61 29.928 278.474 27.08 278.474 23.624C278.474 20.168 279.61 17.336 281.882 15.128C284.186 12.888 287.082 11.768 290.57 11.768C294.058 11.768 296.938 12.888 299.21 15.128C301.514 17.336 302.666 20.168 302.666 23.624C302.666 27.08 301.514 29.928 299.21 32.168C296.938 34.376 294.058 35.48 290.57 35.48C287.082 35.48 284.186 34.376 281.882 32.168ZM294.218 27.512C295.21 26.52 295.706 25.224 295.706 23.624C295.706 22.024 295.21 20.728 294.218 19.736C293.258 18.744 292.042 18.248 290.57 18.248C289.098 18.248 287.866 18.744 286.874 19.736C285.914 20.728 285.434 22.024 285.434 23.624C285.434 25.224 285.914 26.52 286.874 27.512C287.866 28.504 289.098 29 290.57 29C292.042 29 293.258 28.504 294.218 27.512ZM305.275 29.528L310.795 26.6C311.275 27.592 311.963 28.36 312.859 28.904C313.787 29.448 314.811 29.72 315.931 29.72C318.011 29.72 319.051 29.128 319.051 27.944C319.051 27.368 318.699 26.92 317.995 26.6C317.291 26.248 315.979 25.928 314.059 25.64C311.627 25.288 309.723 24.52 308.347 23.336C307.003 22.152 306.331 20.6 306.331 18.68C306.331 16.664 307.211 15.016 308.971 13.736C310.731 12.424 312.811 11.768 315.211 11.768C319.755 11.768 322.747 13.336 324.187 16.472L318.715 19.4C318.267 17.992 317.179 17.288 315.451 17.288C314.747 17.288 314.171 17.416 313.723 17.672C313.275 17.928 313.051 18.264 313.051 18.68C313.051 19.192 313.355 19.608 313.963 19.928C314.571 20.216 315.707 20.488 317.371 20.744C320.347 21.192 322.475 21.992 323.755 23.144C325.035 24.296 325.675 25.928 325.675 28.04C325.675 30.184 324.731 31.96 322.843 33.368C320.955 34.776 318.571 35.48 315.691 35.48C310.475 35.48 307.003 33.496 305.275 29.528Z" fill="black"/>
</svg>
