<svg width="77" height="41" viewBox="0 0 77 41" fill="none" xmlns="http://www.w3.org/2000/svg">
<path d="M49.8438 17.296L47.9427 16.1686C47.0526 15.639 46.5025 14.6625 46.5025 13.6061V11.3512C46.5025 10.8896 46.298 10.4546 45.9494 10.1647C44.9125 9.30356 43.7459 8.60522 42.4843 8.10513C42.0637 7.93943 41.5942 7.97198 41.2053 8.20278L39.3014 9.33315C38.4113 9.86283 37.3139 9.86283 36.421 9.33315L34.517 8.20278C34.1281 7.97198 33.6557 7.93647 33.2381 8.10513C31.9735 8.60522 30.8098 9.30356 29.7758 10.1617C29.4272 10.4517 29.2227 10.8867 29.2227 11.3483V13.6031C29.2227 14.6595 28.6754 15.636 27.7825 16.1657L25.8814 17.293C25.4926 17.5239 25.2276 17.9234 25.1584 18.379C25.0518 19.0508 25 19.7373 25 20.4356C25 21.134 25.0518 21.8205 25.1555 22.4892C25.2247 22.9449 25.4897 23.3474 25.8785 23.5782L27.7796 24.7055C28.6697 25.2352 29.2198 26.2117 29.2198 27.2681V29.523C29.2198 29.9845 29.4244 30.4195 29.7729 30.7096C30.807 31.5676 31.9735 32.266 33.2352 32.7661C33.6557 32.9318 34.1253 32.8993 34.5141 32.6685L36.4181 31.5381C37.3081 31.0084 38.4055 31.0084 39.2985 31.5381L41.2024 32.6685C41.5913 32.8993 42.0637 32.9318 42.4814 32.7661C43.743 32.266 44.9096 31.5676 45.9437 30.7096C46.2922 30.4195 46.4967 29.9845 46.4967 29.523V27.2681C46.4967 26.2117 47.0469 25.2352 47.937 24.7055L49.838 23.5782C50.2269 23.3474 50.4919 22.9479 50.561 22.4892C50.6618 21.8205 50.7166 21.134 50.7166 20.4356C50.7166 19.7373 50.6647 19.0508 50.561 18.382C50.4947 17.9263 50.2326 17.5269 49.8438 17.296ZM37.8612 28.3749C33.5953 28.3749 30.1358 24.821 30.1358 20.4386C30.1358 16.0562 33.5953 12.5023 37.8612 12.5023C42.1271 12.5023 45.5865 16.0562 45.5865 20.4386C45.5865 24.821 42.1271 28.3749 37.8612 28.3749Z" fill="#F97315"/>
<path d="M2.14915 33V8.27273H11.9048C13.7723 8.27273 15.366 8.60677 16.6861 9.27486C18.0142 9.9349 19.0244 10.8726 19.7166 12.0881C20.4169 13.2955 20.767 14.7161 20.767 16.3501C20.767 17.9922 20.4129 19.4048 19.7045 20.5881C18.9962 21.7633 17.9699 22.6648 16.6257 23.2926C15.2895 23.9205 13.6716 24.2344 11.772 24.2344H5.24006V20.0327H10.9268C11.925 20.0327 12.754 19.8958 13.4141 19.6222C14.0741 19.3485 14.5651 18.938 14.8871 18.3906C15.2171 17.8433 15.3821 17.1631 15.3821 16.3501C15.3821 15.5291 15.2171 14.8369 14.8871 14.2734C14.5651 13.71 14.0701 13.2834 13.402 12.9936C12.742 12.6958 11.9089 12.5469 10.9027 12.5469H7.37713V33H2.14915ZM15.5028 21.7472L21.6484 33H15.8771L9.86435 21.7472H15.5028Z" fill="black"/>
<path d="M52.7003 8.27273H58.5561L64.1946 18.9219H64.4361L70.0746 8.27273H75.9304L66.9112 24.2585V33H61.7195V24.2585L52.7003 8.27273Z" fill="black"/>
</svg>
