<svg width="1014" height="607" viewBox="0 0 1014 607" fill="none" xmlns="http://www.w3.org/2000/svg">
<g clip-path="url(#clip0_1101_12)">
<g filter="url(#filter0_f_1101_12)">
<path d="M507.731 564.94C758.793 564.94 962.32 562.8 962.32 560.16C962.32 557.521 758.793 555.381 507.731 555.381C256.668 555.381 53.1416 557.521 53.1416 560.16C53.1416 562.8 256.668 564.94 507.731 564.94Z" fill="black"/>
</g>
<path d="M127.355 0.955078H891.121C906.033 0.955078 918.121 12.5104 918.121 26.7645V525.748C918.121 527.331 916.778 528.615 915.121 528.615H103.355C101.698 528.615 100.355 527.331 100.355 525.748V26.7645C100.355 12.5104 112.443 0.955078 127.355 0.955078Z" fill="#1A202C" stroke="#4A5568" stroke-width="2"/>
<path d="M104.378 25.8093C104.378 14.1947 114.228 4.7793 126.378 4.7793H892.098C904.249 4.7793 914.098 14.1947 914.098 25.8092V509.498H104.378V25.8093Z" fill="black"/>
<path d="M467.403 511.93H469.499L472.306 518.479H472.416L475.223 511.93H477.319V520.968H475.676V514.758H475.588L472.975 520.941H471.747L469.134 514.746H469.046V520.968H467.403V511.93ZM481.151 521.104C480.701 521.104 480.297 521.028 479.937 520.875C479.58 520.719 479.296 520.49 479.087 520.187C478.881 519.884 478.778 519.51 478.778 519.066C478.778 518.683 478.852 518.367 478.999 518.117C479.147 517.867 479.349 517.667 479.604 517.517C479.86 517.367 480.147 517.253 480.468 517.177C480.791 517.097 481.125 517.04 481.469 517.005C481.885 516.964 482.222 516.927 482.48 516.895C482.739 516.859 482.927 516.806 483.044 516.736C483.164 516.662 483.224 516.549 483.224 516.396V516.369C483.224 516.037 483.12 515.779 482.914 515.598C482.708 515.415 482.411 515.323 482.023 515.323C481.614 515.323 481.289 515.409 481.049 515.579C480.812 515.75 480.652 515.951 480.569 516.183L479.009 515.972C479.132 515.56 479.335 515.216 479.618 514.94C479.901 514.66 480.247 514.451 480.657 514.313C481.066 514.171 481.519 514.102 482.014 514.102C482.356 514.102 482.696 514.14 483.034 514.216C483.373 514.293 483.682 514.419 483.962 514.596C484.242 514.769 484.467 515.006 484.636 515.306C484.809 515.606 484.895 515.981 484.895 516.431V520.968H483.288V520.037H483.233C483.131 520.225 482.988 520.401 482.803 520.566C482.622 520.728 482.393 520.859 482.116 520.959C481.842 521.056 481.52 521.104 481.151 521.104ZM481.585 519.931C481.92 519.931 482.211 519.868 482.457 519.74C482.703 519.611 482.893 519.44 483.025 519.229C483.16 519.017 483.228 518.786 483.228 518.536V517.737C483.176 517.779 483.087 517.817 482.96 517.853C482.837 517.887 482.699 517.918 482.545 517.944C482.391 517.971 482.239 517.995 482.088 518.015C481.937 518.036 481.806 518.053 481.695 518.069C481.446 518.101 481.223 518.154 481.026 518.227C480.829 518.301 480.674 518.404 480.56 518.536C480.446 518.665 480.389 518.833 480.389 519.039C480.389 519.333 480.501 519.555 480.726 519.705C480.951 519.855 481.237 519.931 481.585 519.931ZM489.668 521.1C488.96 521.1 488.352 520.952 487.845 520.654C487.34 520.357 486.951 519.947 486.677 519.423C486.406 518.896 486.27 518.29 486.27 517.605C486.27 516.917 486.409 516.309 486.686 515.782C486.963 515.252 487.354 514.841 487.858 514.547C488.366 514.25 488.966 514.102 489.659 514.102C490.234 514.102 490.744 514.203 491.187 514.406C491.633 514.605 491.989 514.889 492.253 515.257C492.518 515.622 492.669 516.049 492.706 516.537H491.108C491.044 516.21 490.89 515.939 490.647 515.721C490.407 515.5 490.085 515.39 489.682 515.39C489.34 515.39 489.04 515.478 488.782 515.655C488.523 515.828 488.322 516.078 488.177 516.404C488.035 516.731 487.965 517.122 487.965 517.578C487.965 518.04 488.035 518.437 488.177 518.77C488.319 519.099 488.517 519.354 488.773 519.533C489.031 519.71 489.334 519.798 489.682 519.798C489.928 519.798 490.148 519.754 490.342 519.666C490.539 519.574 490.704 519.444 490.836 519.273C490.968 519.103 491.059 518.895 491.108 518.651H492.706C492.666 519.131 492.518 519.555 492.263 519.926C492.007 520.294 491.659 520.583 491.219 520.791C490.779 520.997 490.262 521.1 489.668 521.1ZM494.152 520.968V511.93H495.823V515.31H495.892C495.978 515.145 496.1 514.97 496.257 514.785C496.414 514.597 496.626 514.436 496.894 514.304C497.162 514.168 497.503 514.102 497.919 514.102C498.467 514.102 498.961 514.235 499.401 514.503C499.844 514.768 500.195 515.16 500.453 515.681C500.715 516.199 500.846 516.834 500.846 517.588C500.846 518.331 500.718 518.964 500.463 519.485C500.207 520.005 499.859 520.403 499.419 520.676C498.979 520.95 498.481 521.086 497.924 521.086C497.517 521.086 497.18 521.022 496.913 520.892C496.645 520.763 496.429 520.607 496.266 520.425C496.106 520.239 495.982 520.064 495.892 519.9H495.795V520.968H494.152ZM495.791 517.578C495.791 518.017 495.855 518.401 495.985 518.73C496.117 519.06 496.306 519.317 496.552 519.502C496.802 519.685 497.103 519.776 497.457 519.776C497.827 519.776 498.136 519.682 498.385 519.494C498.635 519.303 498.822 519.042 498.948 518.713C499.078 518.38 499.142 518.002 499.142 517.578C499.142 517.158 499.079 516.784 498.953 516.458C498.827 516.131 498.639 515.875 498.39 515.689C498.141 515.505 497.83 515.412 497.457 515.412C497.1 515.412 496.797 515.501 496.548 515.681C496.299 515.86 496.109 516.112 495.98 516.436C495.854 516.759 495.791 517.14 495.791 517.578ZM505.36 521.1C504.667 521.1 504.067 520.954 503.559 520.663C503.051 520.372 502.657 519.964 502.377 519.44C502.1 518.917 501.962 518.305 501.962 517.605C501.962 516.905 502.1 516.292 502.377 515.765C502.657 515.238 503.051 514.829 503.559 514.538C504.067 514.247 504.667 514.102 505.36 514.102C506.052 514.102 506.652 514.247 507.16 514.538C507.668 514.829 508.06 515.238 508.337 515.765C508.617 516.292 508.757 516.905 508.757 517.605C508.757 518.305 508.617 518.917 508.337 519.44C508.06 519.964 507.668 520.372 507.16 520.663C506.652 520.954 506.052 521.1 505.36 521.1ZM505.369 519.82C505.744 519.82 506.058 519.721 506.311 519.524C506.563 519.325 506.751 519.057 506.874 518.721C507 518.386 507.063 518.012 507.063 517.6C507.063 517.185 507 516.811 506.874 516.475C506.751 516.137 506.563 515.868 506.311 515.667C506.058 515.468 505.744 515.367 505.369 515.367C504.984 515.367 504.664 515.468 504.409 515.667C504.156 515.868 503.967 516.137 503.841 516.475C503.718 516.811 503.656 517.185 503.656 517.6C503.656 518.012 503.718 518.386 503.841 518.721C503.967 519.057 504.156 519.325 504.409 519.524C504.664 519.721 504.984 519.82 505.369 519.82ZM513.269 521.1C512.576 521.1 511.976 520.954 511.468 520.663C510.961 520.372 510.567 519.964 510.286 519.44C510.01 518.917 509.871 518.305 509.871 517.605C509.871 516.905 510.01 516.292 510.286 515.765C510.567 515.238 510.961 514.829 511.468 514.538C511.976 514.247 512.576 514.102 513.269 514.102C513.961 514.102 514.561 514.247 515.069 514.538C515.577 514.829 515.969 515.238 516.246 515.765C516.526 516.292 516.666 516.905 516.666 517.605C516.666 518.305 516.526 518.917 516.246 519.44C515.969 519.964 515.577 520.372 515.069 520.663C514.561 520.954 513.961 521.1 513.269 521.1ZM513.278 519.82C513.653 519.82 513.967 519.721 514.22 519.524C514.472 519.325 514.66 519.057 514.783 518.721C514.909 518.386 514.972 518.012 514.972 517.6C514.972 517.185 514.909 516.811 514.783 516.475C514.66 516.137 514.472 515.868 514.22 515.667C513.967 515.468 513.653 515.367 513.278 515.367C512.893 515.367 512.573 515.468 512.318 515.667C512.065 515.868 511.876 516.137 511.75 516.475C511.627 516.811 511.565 517.185 511.565 517.6C511.565 518.012 511.627 518.386 511.75 518.721C511.876 519.057 512.065 519.325 512.318 519.524C512.573 519.721 512.893 519.82 513.278 519.82ZM519.608 518.841L519.604 516.912H519.871L522.42 514.189H524.373L521.238 517.526H520.892L519.608 518.841ZM518.085 520.968V511.93H519.756V520.968H518.085ZM522.535 520.968L520.227 517.883L521.353 516.758L524.534 520.968H522.535ZM528.785 520.968V511.93H532.33C533.057 511.93 533.666 512.06 534.158 512.318C534.654 512.577 535.028 512.933 535.28 513.386C535.536 513.837 535.663 514.348 535.663 514.922C535.663 515.501 535.536 516.016 535.28 516.466C535.025 516.917 534.648 517.271 534.149 517.53C533.65 517.786 533.036 517.914 532.307 517.914H529.957V516.568H532.076C532.501 516.568 532.849 516.497 533.12 516.357C533.39 516.215 533.59 516.021 533.72 515.773C533.852 515.527 533.918 515.243 533.918 514.922C533.918 514.601 533.852 514.319 533.72 514.075C533.59 513.83 533.389 513.641 533.115 513.505C532.844 513.367 532.495 513.298 532.067 513.298H530.497V520.968H528.785ZM537.077 520.968V514.189H538.697V515.319H538.771C538.901 514.927 539.122 514.626 539.436 514.414C539.753 514.2 540.115 514.092 540.521 514.092C540.613 514.092 540.716 514.097 540.83 514.105C540.947 514.111 541.044 514.122 541.121 514.136V515.606C541.05 515.582 540.938 515.562 540.784 515.544C540.633 515.524 540.487 515.513 540.346 515.513C540.041 515.513 539.767 515.576 539.524 515.703C539.284 515.827 539.094 515.999 538.956 516.219C538.817 516.44 538.748 516.694 538.748 516.983V520.968H537.077ZM545.032 521.1C544.34 521.1 543.74 520.954 543.232 520.663C542.724 520.372 542.33 519.964 542.05 519.44C541.773 518.917 541.635 518.305 541.635 517.605C541.635 516.905 541.773 516.292 542.05 515.765C542.33 515.238 542.724 514.829 543.232 514.538C543.74 514.247 544.34 514.102 545.032 514.102C545.725 514.102 546.325 514.247 546.833 514.538C547.341 514.829 547.733 515.238 548.01 515.765C548.29 516.292 548.43 516.905 548.43 517.605C548.43 518.305 548.29 518.917 548.01 519.44C547.733 519.964 547.341 520.372 546.833 520.663C546.325 520.954 545.725 521.1 545.032 521.1ZM545.042 519.82C545.417 519.82 545.731 519.721 545.983 519.524C546.236 519.325 546.424 519.057 546.547 518.721C546.673 518.386 546.736 518.012 546.736 517.6C546.736 517.185 546.673 516.811 546.547 516.475C546.424 516.137 546.236 515.868 545.983 515.667C545.731 515.468 545.417 515.367 545.042 515.367C544.657 515.367 544.337 515.468 544.081 515.667C543.829 515.868 543.64 516.137 543.514 516.475C543.39 516.811 543.329 517.185 543.329 517.6C543.329 518.012 543.39 518.386 543.514 518.721C543.64 519.057 543.829 519.325 544.081 519.524C544.337 519.721 544.657 519.82 545.042 519.82Z" fill="#A0AEC0"/>
<path d="M0.902344 527.66C0.902344 526.604 1.79778 525.748 2.90235 525.748H1011.56C1012.66 525.748 1013.56 526.604 1013.56 527.66V542.954H0.902344V527.66Z" fill="#A3ACB1"/>
<path d="M0.902344 527.66C0.902344 526.604 1.79778 525.748 2.90235 525.748H1011.56C1012.66 525.748 1013.56 526.604 1013.56 527.66V542.954H0.902344V527.66Z" fill="url(#paint0_linear_1101_12)"/>
<path d="M0.902344 542.955H1013.56L992.757 546.946C966.836 551.92 940.464 554.426 914.026 554.426H98.8635C69.8087 554.426 40.8404 551.4 12.4714 545.401L0.902344 542.955Z" fill="#647279"/>
<path d="M0.902344 542.955H1013.56L992.757 546.946C966.836 551.92 940.464 554.426 914.026 554.426H98.8635C69.8087 554.426 40.8404 551.4 12.4714 545.401L0.902344 542.955Z" fill="url(#paint1_linear_1101_12)"/>
<path fill-rule="evenodd" clip-rule="evenodd" d="M423.878 525.748C424.395 533.221 430.93 539.131 438.915 539.131H576.547C584.532 539.131 591.066 533.221 591.583 525.748H423.878Z" fill="#96A1A8"/>
<path fill-rule="evenodd" clip-rule="evenodd" d="M423.878 525.748C424.395 533.221 430.93 539.131 438.915 539.131H576.547C584.532 539.131 591.066 533.221 591.583 525.748H423.878Z" fill="url(#paint2_linear_1101_12)"/>
<mask id="mask0_1101_12" style="mask-type:alpha" maskUnits="userSpaceOnUse" x="128" y="36" width="761" height="458">
<path d="M889 36.3242H128V493.247H889V36.3242Z" fill="#C4C4C4"/>
</mask>
<g mask="url(#mask0_1101_12)">
</g>
</g>
<defs>
<filter id="filter0_f_1101_12" x="9.1416" y="511.381" width="997.178" height="97.5586" filterUnits="userSpaceOnUse" color-interpolation-filters="sRGB">
<feFlood flood-opacity="0" result="BackgroundImageFix"/>
<feBlend mode="normal" in="SourceGraphic" in2="BackgroundImageFix" result="shape"/>
<feGaussianBlur stdDeviation="22" result="effect1_foregroundBlur_1101_12"/>
</filter>
<linearGradient id="paint0_linear_1101_12" x1="0.902344" y1="534.351" x2="1013.56" y2="534.351" gradientUnits="userSpaceOnUse">
<stop stop-color="#0D1012"/>
<stop offset="0.0295345" stop-color="#CAD4DB"/>
<stop offset="0.0625" stop-color="#242729"/>
<stop offset="0.133609" stop-color="#A3ACB1"/>
<stop offset="0.865967" stop-color="#A3ACB1"/>
<stop offset="0.941937" stop-color="#242729"/>
<stop offset="0.971275" stop-color="#CAD4DB"/>
<stop offset="0.996436" stop-color="#0D1012"/>
</linearGradient>
<linearGradient id="paint1_linear_1101_12" x1="507.229" y1="542.955" x2="507.229" y2="554.426" gradientUnits="userSpaceOnUse">
<stop stop-color="#7A7F83"/>
<stop offset="1" stop-color="#0B0B0E"/>
</linearGradient>
<linearGradient id="paint2_linear_1101_12" x1="440.422" y1="533.873" x2="578.054" y2="533.873" gradientUnits="userSpaceOnUse">
<stop stop-color="#3C3C3C"/>
<stop offset="0.317518" stop-color="#3C3C3C" stop-opacity="0"/>
<stop offset="0.660584" stop-color="#3C3C3C" stop-opacity="0"/>
<stop offset="1" stop-color="#444444"/>
</linearGradient>
<clipPath id="clip0_1101_12">
<rect width="1014" height="607" fill="white"/>
</clipPath>
</defs>
</svg>
