<svg width="31" height="30" viewBox="0 0 31 30" fill="none" xmlns="http://www.w3.org/2000/svg">
<path d="M29.8357 11.1639L27.5526 9.80995C26.4837 9.17385 25.823 8.00115 25.823 6.73249V4.02461C25.823 3.47024 25.5774 2.94786 25.1588 2.5996C23.9135 1.56549 22.5125 0.726826 20.9974 0.126259C20.4923 -0.0727448 19.9285 -0.0336547 19.4615 0.24353L17.175 1.60102C16.1061 2.23713 14.7881 2.23713 13.7158 1.60102L11.4292 0.24353C10.9622 -0.0336547 10.3949 -0.0762985 9.89333 0.126259C8.37474 0.726826 6.97722 1.56549 5.73536 2.59605C5.3168 2.9443 5.0712 3.46669 5.0712 4.02106V6.72894C5.0712 7.99759 4.41395 9.1703 3.34159 9.8064L1.05852 11.1603C0.591524 11.4375 0.273277 11.9173 0.190256 12.4645C0.0622657 13.2712 0 14.0957 0 14.9343C0 15.773 0.0622657 16.5974 0.186797 17.4005C0.269818 17.9478 0.588065 18.4311 1.05506 18.7083L3.33813 20.0622C4.40703 20.6983 5.06774 21.871 5.06774 23.1397V25.8476C5.06774 26.4019 5.31334 26.9243 5.7319 27.2726C6.97376 28.3031 8.37474 29.1418 9.88987 29.7424C10.3949 29.9414 10.9588 29.9023 11.4258 29.6251L13.7123 28.2676C14.7812 27.6315 16.0991 27.6315 17.1715 28.2676L19.458 29.6251C19.925 29.9023 20.4923 29.9414 20.9939 29.7424C22.5091 29.1418 23.91 28.3031 25.1519 27.2726C25.5705 26.9243 25.8161 26.4019 25.8161 25.8476V23.1397C25.8161 21.871 26.4768 20.6983 27.5457 20.0622L29.8287 18.7083C30.2957 18.4311 30.614 17.9514 30.697 17.4005C30.8181 16.5974 30.8838 15.773 30.8838 14.9343C30.8838 14.0957 30.8215 13.2712 30.697 12.4681C30.6174 11.9208 30.3026 11.4411 29.8357 11.1639ZM15.4454 24.4688C10.3223 24.4688 6.16776 20.2008 6.16776 14.9379C6.16776 9.67491 10.3223 5.40698 15.4454 5.40698C20.5684 5.40698 24.7229 9.67491 24.7229 14.9379C24.7229 20.2008 20.5684 24.4688 15.4454 24.4688Z" fill="black"/>
<path d="M11.0199 20L12.7102 9.81818H17.1051C17.8608 9.81818 18.4988 9.95573 19.0192 10.2308C19.5395 10.5059 19.9141 10.902 20.1428 11.419C20.3714 11.9361 20.4261 12.5559 20.3068 13.2784C20.1875 14.0076 19.924 14.6224 19.5163 15.1229C19.112 15.62 18.5966 15.9979 17.9702 16.2564C17.3471 16.5116 16.6477 16.6392 15.8722 16.6392H13.2472L13.6051 14.4915H15.6733C15.9981 14.4915 16.2831 14.4517 16.5284 14.3722C16.7737 14.2893 16.9725 14.16 17.125 13.9844C17.2775 13.8054 17.3769 13.5701 17.4233 13.2784C17.4697 12.9867 17.4465 12.7498 17.3537 12.5675C17.2609 12.3819 17.1068 12.246 16.8913 12.1598C16.6759 12.0703 16.4091 12.0256 16.0909 12.0256H15.1165L13.7841 20H11.0199ZM17.7614 15.3267L19.5312 20H16.5284L14.8182 15.3267H17.7614Z" fill="black"/>
</svg>
